<?xml version="1.0" encoding="UTF-8" standalone="no"?>
<!DOCTYPE svg PUBLIC "-//W3C//DTD SVG 1.1//EN"
 "http://www.w3.org/Graphics/SVG/1.1/DTD/svg11.dtd">
<!-- Generated by graphviz version 2.38.0 (20140413.2041)
 -->
<!-- Title: %3 Pages: 1 -->
<svg width="940pt" height="929pt"
 viewBox="0.00 0.00 940.00 929.31" xmlns="http://www.w3.org/2000/svg" xmlns:xlink="http://www.w3.org/1999/xlink">
<g id="graph0" class="graph" transform="scale(0.610588 0.610588) rotate(0) translate(4 1518)">
<title>%3</title>
<polygon fill="white" stroke="none" points="-4,4 -4,-1518 1535.5,-1518 1535.5,4 -4,4"/>
<!-- 139694606759192 -->
<g id="node1" class="node"><title>139694606759192</title>
<polygon fill="#caff70" stroke="black" points="1395,-21 1291,-21 1291,-0 1395,-0 1395,-21"/>
<text text-anchor="middle" x="1343" y="-7.4" font-family="Times,serif" font-size="12.00">AddmmBackward</text>
</g>
<!-- 139694606759136 -->
<g id="node2" class="node"><title>139694606759136</title>
<polygon fill="lightblue" stroke="black" points="1279,-91 1199,-91 1199,-57 1279,-57 1279,-91"/>
<text text-anchor="middle" x="1239" y="-77.4" font-family="Times,serif" font-size="12.00">classifier.bias</text>
<text text-anchor="middle" x="1239" y="-64.4" font-family="Times,serif" font-size="12.00"> (10)</text>
</g>
<!-- 139694606759136&#45;&gt;139694606759192 -->
<g id="edge1" class="edge"><title>139694606759136&#45;&gt;139694606759192</title>
<path fill="none" stroke="black" d="M1266.32,-56.8416C1282.27,-47.4106 1302.25,-35.5957 1317.82,-26.3911"/>
<polygon fill="black" stroke="black" points="1320.04,-29.1447 1326.86,-21.0419 1316.47,-23.1194 1320.04,-29.1447"/>
</g>
<!-- 139694606759808 -->
<g id="node3" class="node"><title>139694606759808</title>
<polygon fill="lightgrey" stroke="black" points="1389,-84.5 1297,-84.5 1297,-63.5 1389,-63.5 1389,-84.5"/>
<text text-anchor="middle" x="1343" y="-70.9" font-family="Times,serif" font-size="12.00">ViewBackward</text>
</g>
<!-- 139694606759808&#45;&gt;139694606759192 -->
<g id="edge2" class="edge"><title>139694606759808&#45;&gt;139694606759192</title>
<path fill="none" stroke="black" d="M1343,-63.3906C1343,-54.8657 1343,-42.1392 1343,-31.4235"/>
<polygon fill="black" stroke="black" points="1346.5,-31.2448 1343,-21.2449 1339.5,-31.2449 1346.5,-31.2448"/>
</g>
<!-- 139694606758912 -->
<g id="node4" class="node"><title>139694606758912</title>
<polygon fill="lightgrey" stroke="black" points="1420.5,-154.5 1239.5,-154.5 1239.5,-133.5 1420.5,-133.5 1420.5,-154.5"/>
<text text-anchor="middle" x="1330" y="-140.9" font-family="Times,serif" font-size="12.00">MaxPool2DWithIndicesBackward</text>
</g>
<!-- 139694606758912&#45;&gt;139694606759808 -->
<g id="edge3" class="edge"><title>139694606758912&#45;&gt;139694606759808</title>
<path fill="none" stroke="black" d="M1331.86,-133.257C1333.77,-123.259 1336.8,-107.422 1339.22,-94.7821"/>
<polygon fill="black" stroke="black" points="1342.7,-95.204 1341.14,-84.7247 1335.83,-93.8895 1342.7,-95.204"/>
</g>
<!-- 139694606760760 -->
<g id="node5" class="node"><title>139694606760760</title>
<polygon fill="lightgrey" stroke="black" points="1389.5,-218 1270.5,-218 1270.5,-197 1389.5,-197 1389.5,-218"/>
<text text-anchor="middle" x="1330" y="-204.4" font-family="Times,serif" font-size="12.00">ThresholdBackward1</text>
</g>
<!-- 139694606760760&#45;&gt;139694606758912 -->
<g id="edge4" class="edge"><title>139694606760760&#45;&gt;139694606758912</title>
<path fill="none" stroke="black" d="M1330,-196.891C1330,-188.366 1330,-175.639 1330,-164.923"/>
<polygon fill="black" stroke="black" points="1333.5,-164.745 1330,-154.745 1326.5,-164.745 1333.5,-164.745"/>
</g>
<!-- 139694606760648 -->
<g id="node6" class="node"><title>139694606760648</title>
<polygon fill="lightgrey" stroke="black" points="1406,-275 1254,-275 1254,-254 1406,-254 1406,-275"/>
<text text-anchor="middle" x="1330" y="-261.4" font-family="Times,serif" font-size="12.00">NativeBatchNormBackward</text>
</g>
<!-- 139694606760648&#45;&gt;139694606760760 -->
<g id="edge5" class="edge"><title>139694606760648&#45;&gt;139694606760760</title>
<path fill="none" stroke="black" d="M1330,-253.92C1330,-246.908 1330,-237.144 1330,-228.465"/>
<polygon fill="black" stroke="black" points="1333.5,-228.341 1330,-218.341 1326.5,-228.341 1333.5,-228.341"/>
</g>
<!-- 139694606760592 -->
<g id="node7" class="node"><title>139694606760592</title>
<polygon fill="lightgrey" stroke="black" points="1260,-338.5 1098,-338.5 1098,-317.5 1260,-317.5 1260,-338.5"/>
<text text-anchor="middle" x="1179" y="-324.9" font-family="Times,serif" font-size="12.00">MkldnnConvolutionBackward</text>
</g>
<!-- 139694606760592&#45;&gt;139694606760648 -->
<g id="edge6" class="edge"><title>139694606760592&#45;&gt;139694606760648</title>
<path fill="none" stroke="black" d="M1202.59,-317.391C1227.97,-307.055 1268.51,-290.545 1297.03,-278.928"/>
<polygon fill="black" stroke="black" points="1298.63,-282.055 1306.57,-275.042 1295.99,-275.572 1298.63,-282.055"/>
</g>
<!-- 139694606760424 -->
<g id="node8" class="node"><title>139694606760424</title>
<polygon fill="lightgrey" stroke="black" points="1173.5,-408.5 1054.5,-408.5 1054.5,-387.5 1173.5,-387.5 1173.5,-408.5"/>
<text text-anchor="middle" x="1114" y="-394.9" font-family="Times,serif" font-size="12.00">ThresholdBackward1</text>
</g>
<!-- 139694606760424&#45;&gt;139694606760592 -->
<g id="edge7" class="edge"><title>139694606760424&#45;&gt;139694606760592</title>
<path fill="none" stroke="black" d="M1123.31,-387.257C1133.55,-376.552 1150.18,-359.153 1162.6,-346.152"/>
<polygon fill="black" stroke="black" points="1165.32,-348.372 1169.7,-338.725 1160.26,-343.535 1165.32,-348.372"/>
</g>
<!-- 139694606760312 -->
<g id="node9" class="node"><title>139694606760312</title>
<polygon fill="lightgrey" stroke="black" points="1190,-472 1038,-472 1038,-451 1190,-451 1190,-472"/>
<text text-anchor="middle" x="1114" y="-458.4" font-family="Times,serif" font-size="12.00">NativeBatchNormBackward</text>
</g>
<!-- 139694606760312&#45;&gt;139694606760424 -->
<g id="edge8" class="edge"><title>139694606760312&#45;&gt;139694606760424</title>
<path fill="none" stroke="black" d="M1114,-450.891C1114,-442.366 1114,-429.639 1114,-418.923"/>
<polygon fill="black" stroke="black" points="1117.5,-418.745 1114,-408.745 1110.5,-418.745 1117.5,-418.745"/>
</g>
<!-- 139694606758184 -->
<g id="node10" class="node"><title>139694606758184</title>
<polygon fill="lightgrey" stroke="black" points="1044,-535.5 882,-535.5 882,-514.5 1044,-514.5 1044,-535.5"/>
<text text-anchor="middle" x="963" y="-521.9" font-family="Times,serif" font-size="12.00">MkldnnConvolutionBackward</text>
</g>
<!-- 139694606758184&#45;&gt;139694606760312 -->
<g id="edge9" class="edge"><title>139694606758184&#45;&gt;139694606760312</title>
<path fill="none" stroke="black" d="M986.594,-514.391C1011.97,-504.055 1052.51,-487.545 1081.03,-475.928"/>
<polygon fill="black" stroke="black" points="1082.63,-479.055 1090.57,-472.042 1079.99,-472.572 1082.63,-479.055"/>
</g>
<!-- 139694606758016 -->
<g id="node11" class="node"><title>139694606758016</title>
<polygon fill="lightgrey" stroke="black" points="973.5,-605.5 792.5,-605.5 792.5,-584.5 973.5,-584.5 973.5,-605.5"/>
<text text-anchor="middle" x="883" y="-591.9" font-family="Times,serif" font-size="12.00">MaxPool2DWithIndicesBackward</text>
</g>
<!-- 139694606758016&#45;&gt;139694606758184 -->
<g id="edge10" class="edge"><title>139694606758016&#45;&gt;139694606758184</title>
<path fill="none" stroke="black" d="M894.462,-584.257C907.367,-573.288 928.54,-555.291 943.943,-542.199"/>
<polygon fill="black" stroke="black" points="946.465,-544.649 951.817,-535.505 941.931,-539.315 946.465,-544.649"/>
</g>
<!-- 139694606758856 -->
<g id="node12" class="node"><title>139694606758856</title>
<polygon fill="lightgrey" stroke="black" points="942.5,-669 823.5,-669 823.5,-648 942.5,-648 942.5,-669"/>
<text text-anchor="middle" x="883" y="-655.4" font-family="Times,serif" font-size="12.00">ThresholdBackward1</text>
</g>
<!-- 139694606758856&#45;&gt;139694606758016 -->
<g id="edge11" class="edge"><title>139694606758856&#45;&gt;139694606758016</title>
<path fill="none" stroke="black" d="M883,-647.891C883,-639.366 883,-626.639 883,-615.923"/>
<polygon fill="black" stroke="black" points="886.5,-615.745 883,-605.745 879.5,-615.745 886.5,-615.745"/>
</g>
<!-- 139694606758744 -->
<g id="node13" class="node"><title>139694606758744</title>
<polygon fill="lightgrey" stroke="black" points="959,-726 807,-726 807,-705 959,-705 959,-726"/>
<text text-anchor="middle" x="883" y="-712.4" font-family="Times,serif" font-size="12.00">NativeBatchNormBackward</text>
</g>
<!-- 139694606758744&#45;&gt;139694606758856 -->
<g id="edge12" class="edge"><title>139694606758744&#45;&gt;139694606758856</title>
<path fill="none" stroke="black" d="M883,-704.92C883,-697.908 883,-688.144 883,-679.465"/>
<polygon fill="black" stroke="black" points="886.5,-679.341 883,-669.341 879.5,-679.341 886.5,-679.341"/>
</g>
<!-- 139694606759584 -->
<g id="node14" class="node"><title>139694606759584</title>
<polygon fill="lightgrey" stroke="black" points="813,-789.5 651,-789.5 651,-768.5 813,-768.5 813,-789.5"/>
<text text-anchor="middle" x="732" y="-775.9" font-family="Times,serif" font-size="12.00">MkldnnConvolutionBackward</text>
</g>
<!-- 139694606759584&#45;&gt;139694606758744 -->
<g id="edge13" class="edge"><title>139694606759584&#45;&gt;139694606758744</title>
<path fill="none" stroke="black" d="M755.594,-768.391C780.97,-758.055 821.508,-741.545 850.029,-729.928"/>
<polygon fill="black" stroke="black" points="851.631,-733.055 859.572,-726.042 848.99,-726.572 851.631,-733.055"/>
</g>
<!-- 139694606760200 -->
<g id="node15" class="node"><title>139694606760200</title>
<polygon fill="lightgrey" stroke="black" points="726.5,-859.5 607.5,-859.5 607.5,-838.5 726.5,-838.5 726.5,-859.5"/>
<text text-anchor="middle" x="667" y="-845.9" font-family="Times,serif" font-size="12.00">ThresholdBackward1</text>
</g>
<!-- 139694606760200&#45;&gt;139694606759584 -->
<g id="edge14" class="edge"><title>139694606760200&#45;&gt;139694606759584</title>
<path fill="none" stroke="black" d="M676.313,-838.257C686.546,-827.552 703.177,-810.153 715.605,-797.152"/>
<polygon fill="black" stroke="black" points="718.325,-799.372 722.704,-789.725 713.264,-794.535 718.325,-799.372"/>
</g>
<!-- 139694606760704 -->
<g id="node16" class="node"><title>139694606760704</title>
<polygon fill="lightgrey" stroke="black" points="743,-923 591,-923 591,-902 743,-902 743,-923"/>
<text text-anchor="middle" x="667" y="-909.4" font-family="Times,serif" font-size="12.00">NativeBatchNormBackward</text>
</g>
<!-- 139694606760704&#45;&gt;139694606760200 -->
<g id="edge15" class="edge"><title>139694606760704&#45;&gt;139694606760200</title>
<path fill="none" stroke="black" d="M667,-901.891C667,-893.366 667,-880.639 667,-869.923"/>
<polygon fill="black" stroke="black" points="670.5,-869.745 667,-859.745 663.5,-869.745 670.5,-869.745"/>
</g>
<!-- 139694606760480 -->
<g id="node17" class="node"><title>139694606760480</title>
<polygon fill="lightgrey" stroke="black" points="600,-986.5 438,-986.5 438,-965.5 600,-965.5 600,-986.5"/>
<text text-anchor="middle" x="519" y="-972.9" font-family="Times,serif" font-size="12.00">MkldnnConvolutionBackward</text>
</g>
<!-- 139694606760480&#45;&gt;139694606760704 -->
<g id="edge16" class="edge"><title>139694606760480&#45;&gt;139694606760704</title>
<path fill="none" stroke="black" d="M542.125,-965.391C566.997,-955.055 606.73,-938.545 634.684,-926.928"/>
<polygon fill="black" stroke="black" points="636.146,-930.111 644.037,-923.042 633.46,-923.647 636.146,-930.111"/>
</g>
<!-- 139694606761040 -->
<g id="node18" class="node"><title>139694606761040</title>
<polygon fill="lightgrey" stroke="black" points="530.5,-1056.5 349.5,-1056.5 349.5,-1035.5 530.5,-1035.5 530.5,-1056.5"/>
<text text-anchor="middle" x="440" y="-1042.9" font-family="Times,serif" font-size="12.00">MaxPool2DWithIndicesBackward</text>
</g>
<!-- 139694606761040&#45;&gt;139694606760480 -->
<g id="edge17" class="edge"><title>139694606761040&#45;&gt;139694606760480</title>
<path fill="none" stroke="black" d="M451.319,-1035.26C463.99,-1024.35 484.735,-1006.49 499.923,-993.421"/>
<polygon fill="black" stroke="black" points="502.407,-995.901 507.702,-986.725 497.84,-990.596 502.407,-995.901"/>
</g>
<!-- 139694606761208 -->
<g id="node19" class="node"><title>139694606761208</title>
<polygon fill="lightgrey" stroke="black" points="499.5,-1120 380.5,-1120 380.5,-1099 499.5,-1099 499.5,-1120"/>
<text text-anchor="middle" x="440" y="-1106.4" font-family="Times,serif" font-size="12.00">ThresholdBackward1</text>
</g>
<!-- 139694606761208&#45;&gt;139694606761040 -->
<g id="edge18" class="edge"><title>139694606761208&#45;&gt;139694606761040</title>
<path fill="none" stroke="black" d="M440,-1098.89C440,-1090.37 440,-1077.64 440,-1066.92"/>
<polygon fill="black" stroke="black" points="443.5,-1066.74 440,-1056.74 436.5,-1066.74 443.5,-1066.74"/>
</g>
<!-- 139694606761320 -->
<g id="node20" class="node"><title>139694606761320</title>
<polygon fill="lightgrey" stroke="black" points="516,-1177 364,-1177 364,-1156 516,-1156 516,-1177"/>
<text text-anchor="middle" x="440" y="-1163.4" font-family="Times,serif" font-size="12.00">NativeBatchNormBackward</text>
</g>
<!-- 139694606761320&#45;&gt;139694606761208 -->
<g id="edge19" class="edge"><title>139694606761320&#45;&gt;139694606761208</title>
<path fill="none" stroke="black" d="M440,-1155.92C440,-1148.91 440,-1139.14 440,-1130.47"/>
<polygon fill="black" stroke="black" points="443.5,-1130.34 440,-1120.34 436.5,-1130.34 443.5,-1130.34"/>
</g>
<!-- 139694606761432 -->
<g id="node21" class="node"><title>139694606761432</title>
<polygon fill="lightgrey" stroke="black" points="373,-1240.5 211,-1240.5 211,-1219.5 373,-1219.5 373,-1240.5"/>
<text text-anchor="middle" x="292" y="-1226.9" font-family="Times,serif" font-size="12.00">MkldnnConvolutionBackward</text>
</g>
<!-- 139694606761432&#45;&gt;139694606761320 -->
<g id="edge20" class="edge"><title>139694606761432&#45;&gt;139694606761320</title>
<path fill="none" stroke="black" d="M315.125,-1219.39C339.997,-1209.06 379.73,-1192.54 407.684,-1180.93"/>
<polygon fill="black" stroke="black" points="409.146,-1184.11 417.037,-1177.04 406.46,-1177.65 409.146,-1184.11"/>
</g>
<!-- 139694606761656 -->
<g id="node22" class="node"><title>139694606761656</title>
<polygon fill="lightgrey" stroke="black" points="288.5,-1310.5 169.5,-1310.5 169.5,-1289.5 288.5,-1289.5 288.5,-1310.5"/>
<text text-anchor="middle" x="229" y="-1296.9" font-family="Times,serif" font-size="12.00">ThresholdBackward1</text>
</g>
<!-- 139694606761656&#45;&gt;139694606761432 -->
<g id="edge21" class="edge"><title>139694606761656&#45;&gt;139694606761432</title>
<path fill="none" stroke="black" d="M238.026,-1289.26C247.944,-1278.55 264.064,-1261.15 276.109,-1248.15"/>
<polygon fill="black" stroke="black" points="278.762,-1250.44 282.99,-1240.72 273.627,-1245.68 278.762,-1250.44"/>
</g>
<!-- 139694606761824 -->
<g id="node23" class="node"><title>139694606761824</title>
<polygon fill="lightgrey" stroke="black" points="305,-1374 153,-1374 153,-1353 305,-1353 305,-1374"/>
<text text-anchor="middle" x="229" y="-1360.4" font-family="Times,serif" font-size="12.00">NativeBatchNormBackward</text>
</g>
<!-- 139694606761824&#45;&gt;139694606761656 -->
<g id="edge22" class="edge"><title>139694606761824&#45;&gt;139694606761656</title>
<path fill="none" stroke="black" d="M229,-1352.89C229,-1344.37 229,-1331.64 229,-1320.92"/>
<polygon fill="black" stroke="black" points="232.5,-1320.74 229,-1310.74 225.5,-1320.74 232.5,-1320.74"/>
</g>
<!-- 139694606761936 -->
<g id="node24" class="node"><title>139694606761936</title>
<polygon fill="lightgrey" stroke="black" points="162,-1437.5 0,-1437.5 0,-1416.5 162,-1416.5 162,-1437.5"/>
<text text-anchor="middle" x="81" y="-1423.9" font-family="Times,serif" font-size="12.00">MkldnnConvolutionBackward</text>
</g>
<!-- 139694606761936&#45;&gt;139694606761824 -->
<g id="edge23" class="edge"><title>139694606761936&#45;&gt;139694606761824</title>
<path fill="none" stroke="black" d="M104.125,-1416.39C128.997,-1406.06 168.73,-1389.54 196.684,-1377.93"/>
<polygon fill="black" stroke="black" points="198.146,-1381.11 206.037,-1374.04 195.46,-1374.65 198.146,-1381.11"/>
</g>
<!-- 139694589767920 -->
<g id="node25" class="node"><title>139694589767920</title>
<polygon fill="lightblue" stroke="black" points="130,-1514 32,-1514 32,-1480 130,-1480 130,-1514"/>
<text text-anchor="middle" x="81" y="-1500.4" font-family="Times,serif" font-size="12.00">features.0.weight</text>
<text text-anchor="middle" x="81" y="-1487.4" font-family="Times,serif" font-size="12.00"> (128, 3, 3, 3)</text>
</g>
<!-- 139694589767920&#45;&gt;139694606761936 -->
<g id="edge24" class="edge"><title>139694589767920&#45;&gt;139694606761936</title>
<path fill="none" stroke="black" d="M81,-1479.88C81,-1470.31 81,-1458.09 81,-1447.91"/>
<polygon fill="black" stroke="black" points="84.5001,-1447.89 81,-1437.89 77.5001,-1447.89 84.5001,-1447.89"/>
</g>
<!-- 139694589767752 -->
<g id="node26" class="node"><title>139694589767752</title>
<polygon fill="lightblue" stroke="black" points="278,-1444 180,-1444 180,-1410 278,-1410 278,-1444"/>
<text text-anchor="middle" x="229" y="-1430.4" font-family="Times,serif" font-size="12.00">features.1.weight</text>
<text text-anchor="middle" x="229" y="-1417.4" font-family="Times,serif" font-size="12.00"> (128)</text>
</g>
<!-- 139694589767752&#45;&gt;139694606761824 -->
<g id="edge25" class="edge"><title>139694589767752&#45;&gt;139694606761824</title>
<path fill="none" stroke="black" d="M229,-1409.84C229,-1402.01 229,-1392.54 229,-1384.28"/>
<polygon fill="black" stroke="black" points="232.5,-1384.04 229,-1374.04 225.5,-1384.04 232.5,-1384.04"/>
</g>
<!-- 139694589767808 -->
<g id="node27" class="node"><title>139694589767808</title>
<polygon fill="lightblue" stroke="black" points="380,-1444 296,-1444 296,-1410 380,-1410 380,-1444"/>
<text text-anchor="middle" x="338" y="-1430.4" font-family="Times,serif" font-size="12.00">features.1.bias</text>
<text text-anchor="middle" x="338" y="-1417.4" font-family="Times,serif" font-size="12.00"> (128)</text>
</g>
<!-- 139694589767808&#45;&gt;139694606761824 -->
<g id="edge26" class="edge"><title>139694589767808&#45;&gt;139694606761824</title>
<path fill="none" stroke="black" d="M309.362,-1409.84C292.489,-1400.32 271.311,-1388.37 254.932,-1379.13"/>
<polygon fill="black" stroke="black" points="256.341,-1375.91 245.912,-1374.04 252.901,-1382 256.341,-1375.91"/>
</g>
<!-- 139694606761712 -->
<g id="node28" class="node"><title>139694606761712</title>
<polygon fill="lightblue" stroke="black" points="405,-1317 307,-1317 307,-1283 405,-1283 405,-1317"/>
<text text-anchor="middle" x="356" y="-1303.4" font-family="Times,serif" font-size="12.00">features.3.weight</text>
<text text-anchor="middle" x="356" y="-1290.4" font-family="Times,serif" font-size="12.00"> (128, 128, 3, 3)</text>
</g>
<!-- 139694606761712&#45;&gt;139694606761432 -->
<g id="edge27" class="edge"><title>139694606761712&#45;&gt;139694606761432</title>
<path fill="none" stroke="black" d="M340.833,-1282.88C331.054,-1272.49 318.342,-1258.99 308.34,-1248.36"/>
<polygon fill="black" stroke="black" points="310.715,-1245.78 301.313,-1240.89 305.618,-1250.58 310.715,-1245.78"/>
</g>
<!-- 139694606761488 -->
<g id="node29" class="node"><title>139694606761488</title>
<polygon fill="lightblue" stroke="black" points="489,-1247 391,-1247 391,-1213 489,-1213 489,-1247"/>
<text text-anchor="middle" x="440" y="-1233.4" font-family="Times,serif" font-size="12.00">features.4.weight</text>
<text text-anchor="middle" x="440" y="-1220.4" font-family="Times,serif" font-size="12.00"> (128)</text>
</g>
<!-- 139694606761488&#45;&gt;139694606761320 -->
<g id="edge28" class="edge"><title>139694606761488&#45;&gt;139694606761320</title>
<path fill="none" stroke="black" d="M440,-1212.84C440,-1205.01 440,-1195.54 440,-1187.28"/>
<polygon fill="black" stroke="black" points="443.5,-1187.04 440,-1177.04 436.5,-1187.04 443.5,-1187.04"/>
</g>
<!-- 139694606761544 -->
<g id="node30" class="node"><title>139694606761544</title>
<polygon fill="lightblue" stroke="black" points="591,-1247 507,-1247 507,-1213 591,-1213 591,-1247"/>
<text text-anchor="middle" x="549" y="-1233.4" font-family="Times,serif" font-size="12.00">features.4.bias</text>
<text text-anchor="middle" x="549" y="-1220.4" font-family="Times,serif" font-size="12.00"> (128)</text>
</g>
<!-- 139694606761544&#45;&gt;139694606761320 -->
<g id="edge29" class="edge"><title>139694606761544&#45;&gt;139694606761320</title>
<path fill="none" stroke="black" d="M520.362,-1212.84C503.489,-1203.32 482.311,-1191.37 465.932,-1182.13"/>
<polygon fill="black" stroke="black" points="467.341,-1178.91 456.912,-1177.04 463.901,-1185 467.341,-1178.91"/>
</g>
<!-- 139694606761096 -->
<g id="node31" class="node"><title>139694606761096</title>
<polygon fill="lightblue" stroke="black" points="647,-1063 549,-1063 549,-1029 647,-1029 647,-1063"/>
<text text-anchor="middle" x="598" y="-1049.4" font-family="Times,serif" font-size="12.00">features.7.weight</text>
<text text-anchor="middle" x="598" y="-1036.4" font-family="Times,serif" font-size="12.00"> (256, 128, 3, 3)</text>
</g>
<!-- 139694606761096&#45;&gt;139694606760480 -->
<g id="edge30" class="edge"><title>139694606761096&#45;&gt;139694606760480</title>
<path fill="none" stroke="black" d="M579.278,-1028.88C566.852,-1018.19 550.59,-1004.19 538.089,-993.431"/>
<polygon fill="black" stroke="black" points="540.358,-990.766 530.495,-986.895 535.791,-996.071 540.358,-990.766"/>
</g>
<!-- 139694606760928 -->
<g id="node32" class="node"><title>139694606760928</title>
<polygon fill="lightblue" stroke="black" points="716,-993 618,-993 618,-959 716,-959 716,-993"/>
<text text-anchor="middle" x="667" y="-979.4" font-family="Times,serif" font-size="12.00">features.8.weight</text>
<text text-anchor="middle" x="667" y="-966.4" font-family="Times,serif" font-size="12.00"> (256)</text>
</g>
<!-- 139694606760928&#45;&gt;139694606760704 -->
<g id="edge31" class="edge"><title>139694606760928&#45;&gt;139694606760704</title>
<path fill="none" stroke="black" d="M667,-958.842C667,-951.012 667,-941.54 667,-933.282"/>
<polygon fill="black" stroke="black" points="670.5,-933.042 667,-923.042 663.5,-933.042 670.5,-933.042"/>
</g>
<!-- 139694606760872 -->
<g id="node33" class="node"><title>139694606760872</title>
<polygon fill="lightblue" stroke="black" points="818,-993 734,-993 734,-959 818,-959 818,-993"/>
<text text-anchor="middle" x="776" y="-979.4" font-family="Times,serif" font-size="12.00">features.8.bias</text>
<text text-anchor="middle" x="776" y="-966.4" font-family="Times,serif" font-size="12.00"> (256)</text>
</g>
<!-- 139694606760872&#45;&gt;139694606760704 -->
<g id="edge32" class="edge"><title>139694606760872&#45;&gt;139694606760704</title>
<path fill="none" stroke="black" d="M747.362,-958.842C730.489,-949.322 709.311,-937.373 692.932,-928.131"/>
<polygon fill="black" stroke="black" points="694.341,-924.908 683.912,-923.042 690.901,-931.004 694.341,-924.908"/>
</g>
<!-- 139694606759864 -->
<g id="node34" class="node"><title>139694606759864</title>
<polygon fill="lightblue" stroke="black" points="849,-866 745,-866 745,-832 849,-832 849,-866"/>
<text text-anchor="middle" x="797" y="-852.4" font-family="Times,serif" font-size="12.00">features.10.weight</text>
<text text-anchor="middle" x="797" y="-839.4" font-family="Times,serif" font-size="12.00"> (256, 256, 3, 3)</text>
</g>
<!-- 139694606759864&#45;&gt;139694606759584 -->
<g id="edge33" class="edge"><title>139694606759864&#45;&gt;139694606759584</title>
<path fill="none" stroke="black" d="M781.596,-831.885C771.664,-821.494 758.754,-807.988 748.595,-797.361"/>
<polygon fill="black" stroke="black" points="750.898,-794.705 741.458,-789.895 745.838,-799.542 750.898,-794.705"/>
</g>
<!-- 139694606759752 -->
<g id="node35" class="node"><title>139694606759752</title>
<polygon fill="lightblue" stroke="black" points="935,-796 831,-796 831,-762 935,-762 935,-796"/>
<text text-anchor="middle" x="883" y="-782.4" font-family="Times,serif" font-size="12.00">features.11.weight</text>
<text text-anchor="middle" x="883" y="-769.4" font-family="Times,serif" font-size="12.00"> (256)</text>
</g>
<!-- 139694606759752&#45;&gt;139694606758744 -->
<g id="edge34" class="edge"><title>139694606759752&#45;&gt;139694606758744</title>
<path fill="none" stroke="black" d="M883,-761.842C883,-754.012 883,-744.54 883,-736.282"/>
<polygon fill="black" stroke="black" points="886.5,-736.042 883,-726.042 879.5,-736.042 886.5,-736.042"/>
</g>
<!-- 139694606759360 -->
<g id="node36" class="node"><title>139694606759360</title>
<polygon fill="lightblue" stroke="black" points="1043,-796 953,-796 953,-762 1043,-762 1043,-796"/>
<text text-anchor="middle" x="998" y="-782.4" font-family="Times,serif" font-size="12.00">features.11.bias</text>
<text text-anchor="middle" x="998" y="-769.4" font-family="Times,serif" font-size="12.00"> (256)</text>
</g>
<!-- 139694606759360&#45;&gt;139694606758744 -->
<g id="edge35" class="edge"><title>139694606759360&#45;&gt;139694606758744</title>
<path fill="none" stroke="black" d="M967.785,-761.842C949.817,-752.233 927.222,-740.149 909.876,-730.873"/>
<polygon fill="black" stroke="black" points="911.311,-727.671 900.843,-726.042 908.01,-733.844 911.311,-727.671"/>
</g>
<!-- 139694606760032 -->
<g id="node37" class="node"><title>139694606760032</title>
<polygon fill="lightblue" stroke="black" points="1096,-612 992,-612 992,-578 1096,-578 1096,-612"/>
<text text-anchor="middle" x="1044" y="-598.4" font-family="Times,serif" font-size="12.00">features.14.weight</text>
<text text-anchor="middle" x="1044" y="-585.4" font-family="Times,serif" font-size="12.00"> (512, 256, 3, 3)</text>
</g>
<!-- 139694606760032&#45;&gt;139694606758184 -->
<g id="edge36" class="edge"><title>139694606760032&#45;&gt;139694606758184</title>
<path fill="none" stroke="black" d="M1024.8,-577.885C1012.06,-567.189 995.39,-553.191 982.572,-542.431"/>
<polygon fill="black" stroke="black" points="984.696,-539.644 974.786,-535.895 980.195,-545.005 984.696,-539.644"/>
</g>
<!-- 139694606760144 -->
<g id="node38" class="node"><title>139694606760144</title>
<polygon fill="lightblue" stroke="black" points="1166,-542 1062,-542 1062,-508 1166,-508 1166,-542"/>
<text text-anchor="middle" x="1114" y="-528.4" font-family="Times,serif" font-size="12.00">features.15.weight</text>
<text text-anchor="middle" x="1114" y="-515.4" font-family="Times,serif" font-size="12.00"> (512)</text>
</g>
<!-- 139694606760144&#45;&gt;139694606760312 -->
<g id="edge37" class="edge"><title>139694606760144&#45;&gt;139694606760312</title>
<path fill="none" stroke="black" d="M1114,-507.842C1114,-500.012 1114,-490.54 1114,-482.282"/>
<polygon fill="black" stroke="black" points="1117.5,-482.042 1114,-472.042 1110.5,-482.042 1117.5,-482.042"/>
</g>
<!-- 139694606758072 -->
<g id="node39" class="node"><title>139694606758072</title>
<polygon fill="lightblue" stroke="black" points="1274,-542 1184,-542 1184,-508 1274,-508 1274,-542"/>
<text text-anchor="middle" x="1229" y="-528.4" font-family="Times,serif" font-size="12.00">features.15.bias</text>
<text text-anchor="middle" x="1229" y="-515.4" font-family="Times,serif" font-size="12.00"> (512)</text>
</g>
<!-- 139694606758072&#45;&gt;139694606760312 -->
<g id="edge38" class="edge"><title>139694606758072&#45;&gt;139694606760312</title>
<path fill="none" stroke="black" d="M1198.79,-507.842C1180.82,-498.233 1158.22,-486.149 1140.88,-476.873"/>
<polygon fill="black" stroke="black" points="1142.31,-473.671 1131.84,-472.042 1139.01,-479.844 1142.31,-473.671"/>
</g>
<!-- 139694606758352 -->
<g id="node40" class="node"><title>139694606758352</title>
<polygon fill="lightblue" stroke="black" points="1296,-415 1192,-415 1192,-381 1296,-381 1296,-415"/>
<text text-anchor="middle" x="1244" y="-401.4" font-family="Times,serif" font-size="12.00">features.17.weight</text>
<text text-anchor="middle" x="1244" y="-388.4" font-family="Times,serif" font-size="12.00"> (512, 512, 3, 3)</text>
</g>
<!-- 139694606758352&#45;&gt;139694606760592 -->
<g id="edge39" class="edge"><title>139694606758352&#45;&gt;139694606760592</title>
<path fill="none" stroke="black" d="M1228.6,-380.885C1218.66,-370.494 1205.75,-356.988 1195.6,-346.361"/>
<polygon fill="black" stroke="black" points="1197.9,-343.705 1188.46,-338.895 1192.84,-348.542 1197.9,-343.705"/>
</g>
<!-- 139694606758520 -->
<g id="node41" class="node"><title>139694606758520</title>
<polygon fill="lightblue" stroke="black" points="1382,-345 1278,-345 1278,-311 1382,-311 1382,-345"/>
<text text-anchor="middle" x="1330" y="-331.4" font-family="Times,serif" font-size="12.00">features.18.weight</text>
<text text-anchor="middle" x="1330" y="-318.4" font-family="Times,serif" font-size="12.00"> (512)</text>
</g>
<!-- 139694606758520&#45;&gt;139694606760648 -->
<g id="edge40" class="edge"><title>139694606758520&#45;&gt;139694606760648</title>
<path fill="none" stroke="black" d="M1330,-310.842C1330,-303.012 1330,-293.54 1330,-285.282"/>
<polygon fill="black" stroke="black" points="1333.5,-285.042 1330,-275.042 1326.5,-285.042 1333.5,-285.042"/>
</g>
<!-- 139694606760536 -->
<g id="node42" class="node"><title>139694606760536</title>
<polygon fill="lightblue" stroke="black" points="1490,-345 1400,-345 1400,-311 1490,-311 1490,-345"/>
<text text-anchor="middle" x="1445" y="-331.4" font-family="Times,serif" font-size="12.00">features.18.bias</text>
<text text-anchor="middle" x="1445" y="-318.4" font-family="Times,serif" font-size="12.00"> (512)</text>
</g>
<!-- 139694606760536&#45;&gt;139694606760648 -->
<g id="edge41" class="edge"><title>139694606760536&#45;&gt;139694606760648</title>
<path fill="none" stroke="black" d="M1414.79,-310.842C1396.82,-301.233 1374.22,-289.149 1356.88,-279.873"/>
<polygon fill="black" stroke="black" points="1358.31,-276.671 1347.84,-275.042 1355.01,-282.844 1358.31,-276.671"/>
</g>
<!-- 139694606759024 -->
<g id="node43" class="node"><title>139694606759024</title>
<polygon fill="lightgrey" stroke="black" points="1507.5,-84.5 1434.5,-84.5 1434.5,-63.5 1507.5,-63.5 1507.5,-84.5"/>
<text text-anchor="middle" x="1471" y="-70.9" font-family="Times,serif" font-size="12.00">TBackward</text>
</g>
<!-- 139694606759024&#45;&gt;139694606759192 -->
<g id="edge42" class="edge"><title>139694606759024&#45;&gt;139694606759192</title>
<path fill="none" stroke="black" d="M1451,-63.3906C1429.77,-53.1908 1396.02,-36.9763 1371.9,-25.3875"/>
<polygon fill="black" stroke="black" points="1373.39,-22.2179 1362.86,-21.0419 1370.36,-28.5275 1373.39,-22.2179"/>
</g>
<!-- 139694606758800 -->
<g id="node44" class="node"><title>139694606758800</title>
<polygon fill="lightblue" stroke="black" points="1531.5,-161 1438.5,-161 1438.5,-127 1531.5,-127 1531.5,-161"/>
<text text-anchor="middle" x="1485" y="-147.4" font-family="Times,serif" font-size="12.00">classifier.weight</text>
<text text-anchor="middle" x="1485" y="-134.4" font-family="Times,serif" font-size="12.00"> (10, 8192)</text>
</g>
<!-- 139694606758800&#45;&gt;139694606759024 -->
<g id="edge43" class="edge"><title>139694606758800&#45;&gt;139694606759024</title>
<path fill="none" stroke="black" d="M1481.68,-126.885C1479.71,-117.309 1477.19,-105.088 1475.1,-94.9119"/>
<polygon fill="black" stroke="black" points="1478.48,-93.9834 1473.04,-84.8946 1471.63,-95.395 1478.48,-93.9834"/>
</g>
</g>
</svg>
