<svg viewBox="0 0 330 200" xmlns="http://www.w3.org/2000/svg"><g><g><g><g><g><line x1="39.109375" y1="177" x2="34.109375" y2="177" style="visibility: inherit;" fill="rgb(0, 0, 0)" stroke="rgb(204, 204, 204)" stroke-width="1px"></line><line x1="39.109375" y1="163.3846153846154" x2="34.109375" y2="163.3846153846154" style="visibility: inherit;" fill="rgb(0, 0, 0)" stroke="rgb(204, 204, 204)" stroke-width="1px"></line><line x1="39.109375" y1="149.76923076923077" x2="34.109375" y2="149.76923076923077" style="visibility: inherit;" fill="rgb(0, 0, 0)" stroke="rgb(204, 204, 204)" stroke-width="1px"></line><line x1="39.109375" y1="136.15384615384616" x2="34.109375" y2="136.15384615384616" style="visibility: inherit;" fill="rgb(0, 0, 0)" stroke="rgb(204, 204, 204)" stroke-width="1px"></line><line x1="39.109375" y1="122.53846153846153" x2="34.109375" y2="122.53846153846153" style="visibility: inherit;" fill="rgb(0, 0, 0)" stroke="rgb(204, 204, 204)" stroke-width="1px"></line><line x1="39.109375" y1="108.92307692307692" x2="34.109375" y2="108.92307692307692" style="visibility: inherit;" fill="rgb(0, 0, 0)" stroke="rgb(204, 204, 204)" stroke-width="1px"></line><line x1="39.109375" y1="95.3076923076923" x2="34.109375" y2="95.3076923076923" style="visibility: inherit;" fill="rgb(0, 0, 0)" stroke="rgb(204, 204, 204)" stroke-width="1px"></line><line x1="39.109375" y1="81.6923076923077" x2="34.109375" y2="81.6923076923077" style="visibility: inherit;" fill="rgb(0, 0, 0)" stroke="rgb(204, 204, 204)" stroke-width="1px"></line><line x1="39.109375" y1="68.07692307692307" x2="34.109375" y2="68.07692307692307" style="visibility: inherit;" fill="rgb(0, 0, 0)" stroke="rgb(204, 204, 204)" stroke-width="1px"></line><line x1="39.109375" y1="54.46153846153847" x2="34.109375" y2="54.46153846153847" style="visibility: inherit;" fill="rgb(0, 0, 0)" stroke="rgb(204, 204, 204)" stroke-width="1px"></line><line x1="39.109375" y1="40.84615384615384" x2="34.109375" y2="40.84615384615384" style="visibility: inherit;" fill="rgb(0, 0, 0)" stroke="rgb(204, 204, 204)" stroke-width="1px"></line><line x1="39.109375" y1="27.230769230769226" x2="34.109375" y2="27.230769230769226" style="visibility: inherit;" fill="rgb(0, 0, 0)" stroke="rgb(204, 204, 204)" stroke-width="1px"></line><line x1="39.109375" y1="13.615384615384613" x2="34.109375" y2="13.615384615384613" style="visibility: inherit;" fill="rgb(0, 0, 0)" stroke="rgb(204, 204, 204)" stroke-width="1px"></line><line x1="39.109375" y1="0" x2="34.109375" y2="0" style="visibility: inherit;" fill="rgb(0, 0, 0)" stroke="rgb(204, 204, 204)" stroke-width="1px"></line></g><g transform="translate(29.109375, 0)"><text x="0" y="177" dx="0em" dy="0.3em" style="text-anchor: end; visibility: hidden; font-family: &quot;Helvetica Neue&quot;, sans-serif; font-size: 12px; font-weight: 200;" fill="rgb(50, 49, 63)" stroke="none" stroke-width="1px">-10</text><text x="0" y="163.3846153846154" dx="0em" dy="0.3em" style="text-anchor: end; visibility: inherit; font-family: &quot;Helvetica Neue&quot;, sans-serif; font-size: 12px; font-weight: 200;" fill="rgb(50, 49, 63)" stroke="none" stroke-width="1px">0</text><text x="0" y="149.76923076923077" dx="0em" dy="0.3em" style="text-anchor: end; visibility: hidden; font-family: &quot;Helvetica Neue&quot;, sans-serif; font-size: 12px; font-weight: 200;" fill="rgb(50, 49, 63)" stroke="none" stroke-width="1px">10</text><text x="0" y="136.15384615384616" dx="0em" dy="0.3em" style="text-anchor: end; visibility: inherit; font-family: &quot;Helvetica Neue&quot;, sans-serif; font-size: 12px; font-weight: 200;" fill="rgb(50, 49, 63)" stroke="none" stroke-width="1px">20</text><text x="0" y="122.53846153846153" dx="0em" dy="0.3em" style="text-anchor: end; visibility: hidden; font-family: &quot;Helvetica Neue&quot;, sans-serif; font-size: 12px; font-weight: 200;" fill="rgb(50, 49, 63)" stroke="none" stroke-width="1px">30</text><text x="0" y="108.92307692307692" dx="0em" dy="0.3em" style="text-anchor: end; visibility: inherit; font-family: &quot;Helvetica Neue&quot;, sans-serif; font-size: 12px; font-weight: 200;" fill="rgb(50, 49, 63)" stroke="none" stroke-width="1px">40</text><text x="0" y="95.3076923076923" dx="0em" dy="0.3em" style="text-anchor: end; visibility: hidden; font-family: &quot;Helvetica Neue&quot;, sans-serif; font-size: 12px; font-weight: 200;" fill="rgb(50, 49, 63)" stroke="none" stroke-width="1px">50</text><text x="0" y="81.6923076923077" dx="0em" dy="0.3em" style="text-anchor: end; visibility: inherit; font-family: &quot;Helvetica Neue&quot;, sans-serif; font-size: 12px; font-weight: 200;" fill="rgb(50, 49, 63)" stroke="none" stroke-width="1px">60</text><text x="0" y="68.07692307692307" dx="0em" dy="0.3em" style="text-anchor: end; visibility: hidden; font-family: &quot;Helvetica Neue&quot;, sans-serif; font-size: 12px; font-weight: 200;" fill="rgb(50, 49, 63)" stroke="none" stroke-width="1px">70</text><text x="0" y="54.46153846153847" dx="0em" dy="0.3em" style="text-anchor: end; visibility: inherit; font-family: &quot;Helvetica Neue&quot;, sans-serif; font-size: 12px; font-weight: 200;" fill="rgb(50, 49, 63)" stroke="none" stroke-width="1px">80</text><text x="0" y="40.84615384615384" dx="0em" dy="0.3em" style="text-anchor: end; visibility: hidden; font-family: &quot;Helvetica Neue&quot;, sans-serif; font-size: 12px; font-weight: 200;" fill="rgb(50, 49, 63)" stroke="none" stroke-width="1px">90</text><text x="0" y="27.230769230769226" dx="0em" dy="0.3em" style="text-anchor: end; visibility: inherit; font-family: &quot;Helvetica Neue&quot;, sans-serif; font-size: 12px; font-weight: 200;" fill="rgb(50, 49, 63)" stroke="none" stroke-width="1px">100</text><text x="0" y="13.615384615384613" dx="0em" dy="0.3em" style="text-anchor: end; visibility: hidden; font-family: &quot;Helvetica Neue&quot;, sans-serif; font-size: 12px; font-weight: 200;" fill="rgb(50, 49, 63)" stroke="none" stroke-width="1px">110</text><text x="0" y="0" dx="0em" dy="0.3em" style="text-anchor: end; visibility: hidden; font-family: &quot;Helvetica Neue&quot;, sans-serif; font-size: 12px; font-weight: 200;" fill="rgb(50, 49, 63)" stroke="none" stroke-width="1px">120</text></g><line x1="39.109375" y1="0" x2="39.109375" y2="177" fill="rgb(0, 0, 0)" stroke="rgb(204, 204, 204)" stroke-width="1px"></line></g></g><g transform="translate(39, 0)" clip-path="url(#clip_0)"><clipPath id="clip_0"><rect width="290" height="177"></rect></clipPath><g><g><g><line x1="0" y1="0" x2="0" y2="177" fill="rgb(0, 0, 0)" stroke="rgb(60, 60, 60)" stroke-width="1px" opacity="0.25"></line><line x1="36.361328125" y1="0" x2="36.361328125" y2="177" fill="rgb(0, 0, 0)" stroke="rgb(60, 60, 60)" stroke-width="1px" opacity="0.25"></line><line x1="72.72265625" y1="0" x2="72.72265625" y2="177" fill="rgb(0, 0, 0)" stroke="rgb(60, 60, 60)" stroke-width="1px" opacity="0.25"></line><line x1="109.083984375" y1="0" x2="109.083984375" y2="177" fill="rgb(0, 0, 0)" stroke="rgb(60, 60, 60)" stroke-width="1px" opacity="0.25"></line><line x1="145.4453125" y1="0" x2="145.4453125" y2="177" fill="rgb(0, 0, 0)" stroke="rgb(60, 60, 60)" stroke-width="1px" opacity="0.25"></line><line x1="181.806640625" y1="0" x2="181.806640625" y2="177" fill="rgb(0, 0, 0)" stroke="rgb(60, 60, 60)" stroke-width="1px" opacity="0.25"></line><line x1="218.16796875" y1="0" x2="218.16796875" y2="177" fill="rgb(0, 0, 0)" stroke="rgb(60, 60, 60)" stroke-width="1px" opacity="0.25"></line><line x1="254.529296875" y1="0" x2="254.529296875" y2="177" fill="rgb(0, 0, 0)" stroke="rgb(60, 60, 60)" stroke-width="1px" opacity="0.25"></line><line x1="290.890625" y1="0" x2="290.890625" y2="177" fill="rgb(0, 0, 0)" stroke="rgb(60, 60, 60)" stroke-width="1px" opacity="0.25"></line></g><g><line x1="0" y1="177" x2="290.890625" y2="177" fill="rgb(0, 0, 0)" stroke="rgb(60, 60, 60)" stroke-width="1px" opacity="0.25"></line><line x1="0" y1="163.3846153846154" x2="290.890625" y2="163.3846153846154" fill="rgb(0, 0, 0)" stroke="rgb(60, 60, 60)" stroke-width="1px" opacity="0.25"></line><line x1="0" y1="149.76923076923077" x2="290.890625" y2="149.76923076923077" fill="rgb(0, 0, 0)" stroke="rgb(60, 60, 60)" stroke-width="1px" opacity="0.25"></line><line x1="0" y1="136.15384615384616" x2="290.890625" y2="136.15384615384616" fill="rgb(0, 0, 0)" stroke="rgb(60, 60, 60)" stroke-width="1px" opacity="0.25"></line><line x1="0" y1="122.53846153846153" x2="290.890625" y2="122.53846153846153" fill="rgb(0, 0, 0)" stroke="rgb(60, 60, 60)" stroke-width="1px" opacity="0.25"></line><line x1="0" y1="108.92307692307692" x2="290.890625" y2="108.92307692307692" fill="rgb(0, 0, 0)" stroke="rgb(60, 60, 60)" stroke-width="1px" opacity="0.25"></line><line x1="0" y1="95.3076923076923" x2="290.890625" y2="95.3076923076923" fill="rgb(0, 0, 0)" stroke="rgb(60, 60, 60)" stroke-width="1px" opacity="0.25"></line><line x1="0" y1="81.6923076923077" x2="290.890625" y2="81.6923076923077" fill="rgb(0, 0, 0)" stroke="rgb(60, 60, 60)" stroke-width="1px" opacity="0.25"></line><line x1="0" y1="68.07692307692307" x2="290.890625" y2="68.07692307692307" fill="rgb(0, 0, 0)" stroke="rgb(60, 60, 60)" stroke-width="1px" opacity="0.25"></line><line x1="0" y1="54.46153846153847" x2="290.890625" y2="54.46153846153847" fill="rgb(0, 0, 0)" stroke="rgb(60, 60, 60)" stroke-width="1px" opacity="0.25"></line><line x1="0" y1="40.84615384615384" x2="290.890625" y2="40.84615384615384" fill="rgb(0, 0, 0)" stroke="rgb(60, 60, 60)" stroke-width="1px" opacity="0.25"></line><line x1="0" y1="27.230769230769226" x2="290.890625" y2="27.230769230769226" fill="rgb(0, 0, 0)" stroke="rgb(60, 60, 60)" stroke-width="1px" opacity="0.25"></line><line x1="0" y1="13.615384615384613" x2="290.890625" y2="13.615384615384613" fill="rgb(0, 0, 0)" stroke="rgb(60, 60, 60)" stroke-width="1px" opacity="0.25"></line><line x1="0" y1="0" x2="290.890625" y2="0" fill="rgb(0, 0, 0)" stroke="rgb(60, 60, 60)" stroke-width="1px" opacity="0.25"></line></g></g></g><g><g><line x1="0" y1="163.3846153846154" x2="290.890625" y2="163.3846153846154" fill="rgb(0, 0, 0)" stroke="rgb(153, 153, 153)" stroke-width="1.5px"></line></g></g><g><g><line x1="36.361328125" y1="0" x2="36.361328125" y2="177" fill="rgb(0, 0, 0)" stroke="rgb(153, 153, 153)" stroke-width="1.5px"></line></g></g><g><g><g><g><g><path stroke="rgb(51, 187, 238)" stroke-width="2px" d="M36.543134765625,152.4923076923077L37.01583203125,152.4923076923077L37.234,149.87798652959944L37.81578125,147.15942019396184L37.88850390625,149.66483860277486L37.997587890625,145.84382429769087L38.288478515624995,109.09282988896327L38.3975625,69.71755934914663L38.942982421875,28.930240835493635L39.05206640625,27.2987480949582L39.779292968750006,27.233488385336784L40.07018359375,27.23087799695196L40.215628906250004,27.230773581416543L40.94285546875,27.230769404795126L41.415552734375,27.23076923773027L41.81552734375,27.230769231047674L41.997333984375004,27.230769230780368L42.106417968749994,27.23076923076968L42.433669921875,27.230769230769255L42.833644531249995,27.230769230769226L43.015451171875,27.230769230769226L43.088173828125,27.230769230769226L43.12453515625,27.230769230769226L43.26998046875,27.230769230769226L43.560871093749995,27.230769230769226L43.888123046875,27.230769230769226L44.0699296875,27.230769230769226L44.469904296875,27.230769230769226L44.688072265625,27.230769230769226L44.86987890625,27.230769230769226L45.415298828125,27.230769230769226L45.633466796875,27.230769230769226L45.815273437500004,27.230769230769226L46.069802734374996,27.230769230769226L46.215248046875,27.230769230769226L46.287970703125,27.230769230769226L46.9788359375,27.230769230769226L47.160642578125,27.230769230769226L47.378810546874995,27.230769230769226L47.5606171875,27.230769230769226L47.63333984375,27.230769230769226L47.924230468750004,27.230769230769226L48.36056640625,27.230769230769226L48.687818359375,27.230769230769226L48.978708984375,27.230769230769226L49.560490234375,27.230769230769226L49.705935546875,27.230769230769226L50.069548828125,27.230769230769226L51.669447265625,27.230769230769226L51.70580859375,27.230769230769226L52.323951171875,27.230769230769226L52.396673828125,27.230769230769226L52.43303515625,27.230769230769226L52.542119140625005,27.230769230769226L53.0875390625,27.230769230769226L53.196623046875004,27.230769230769226L53.232984375,27.230769230769226L53.59659765625,27.230769230769226L54.214740234375,27.230769230769226L54.287462890625,27.230769230769226L54.978328125,27.230769230769226L55.05105078125,27.230769230769226L55.160134765624996,27.230769230769226L55.451025390625,27.230769230769226L55.669193359374994,27.230769230769226L55.741916015624994,27.230769230769226L55.851,27.230769230769226L56.06916796875,27.230769230769226L56.250974609375,27.230769230769226L56.614587890624996,27.230769230769226L56.832755859375,27.230769230769226L57.050923828125,27.230769230769226L57.196369140624995,27.230769230769226L57.414537109375,27.230769230769226L57.487259765625,27.230769230769226L57.66906640625,27.230769230769226L57.705427734375,27.230769230769226L57.923595703125,27.230769230769226L58.25084765625,27.230769230769226L58.9053515625,27.230769230769226L58.97807421875,27.230769230769226L59.41441015625,27.230769230769226L59.668939453125,27.230769230769226L59.705300781249996,27.230769230769226L59.778023437499996,27.230769230769226L59.887107421875,27.230769230769226L59.959830078125,27.230769230769226L60.396166015625,27.230769230769226L60.50525,27.230769230769226L60.6506953125,27.230769230769226L60.759779296875,27.230769230769226L60.86886328125,27.230769230769226L61.014308593749995,27.230769230769226L61.050669921875,27.230769230769226L61.196115234375,27.230769230769226L61.377921875,27.230769230769226L62.32331640625,27.230769230769226L62.46876171875,27.230769230769226L62.61420703125,27.230769230769226L62.650568359375,27.230769230769226L62.90509765625,27.230769230769226L63.23234960937501,27.230769230769226L63.377794921875,27.230769230769226L63.523240234375,27.230769230769226L63.705046875,27.230769230769226L63.8504921875,27.230769230769226L64.177744140625,27.230769230769226L64.323189453125,27.230769230769226L64.35955078125001,27.230769230769226L64.39591210937499,27.230769230769226L64.468634765625,27.230769230769226L64.50499609375,27.230769230769226L64.7231640625,27.230769230769226L64.904970703125,27.230769230769226L64.977693359375,27.230769230769226L65.15950000000001,27.230769230769226L65.19586132812499,27.230769230769226L65.23222265625,27.230769230769226L65.37766796875,27.230769230769226L65.52311328125,27.230769230769226L65.704919921875,27.230769230769226L65.74128125,27.230769230769226L65.777642578125,27.230769230769226L66.61395312500001,27.230769230769226L66.7593984375,27.230769230769226L67.959322265625,27.230769230769226L68.14112890625,27.230769230769226L68.2138515625,27.230769230769226L68.43201953124999,27.230769230769226L68.72291015625,27.230769230769226L68.94107812499999,27.230769230769226L69.08652343749999,27.230769230769226L69.341052734375,27.230769230769226L69.413775390625,27.230769230769226L69.631943359375,27.230769230769226L69.70466601562501,27.230769230769226L70.213724609375,27.230769230769226L70.2500859375,27.230769230769226L70.61369921875,27.230769230769226L70.722783203125,27.230769230769226L71.05003515625,27.230769230769226L71.19548046874999,27.230769230769226L71.34092578125,27.230769230769226L71.668177734375,27.230769230769226L71.7045390625,27.230769230769226L71.92270703125,27.230769230769226L71.95906835937501,27.230769230769226L72.140875,27.230769230769226L72.5772109375,27.230769230769226L72.79537890625,27.230769230769226L72.904462890625,27.230769230769226L73.23171484375,27.230769230769226L73.340798828125,27.230769230769226L73.63168945312499,27.230769230769226L74.068025390625,27.230769230769226L74.3225546875,27.230769230769226L74.795251953125,27.230769230769226L75.01341992187501,27.230769230769226L75.12250390624999,27.230769230769226L75.1952265625,27.230769230769226L75.340671875,27.230769230769226L75.4861171875,27.230769230769226L75.55883984375,27.230769230769226L75.740646484375,27.230769230769226L75.7770078125,27.230769230769226L76.104259765625,27.230769230769226L76.32242773437501,27.230769230769226L76.46787304687501,27.230769230769226L76.50423437500001,27.230769230769226L76.86784765624999,27.230769230769226L77.049654296875,27.230769230769226L77.558712890625,27.230769230769226L78.35866210937499,27.230769230769226L78.3950234375,27.230769230769226L78.54046875,28.537846153846175L78.576830078125,27.283052307692316L78.61319140625,27.232860553846166L79.26769531250001,27.230852883692307L79.70403125,27.230772576886153L79.740392578125,27.230769364613906L79.95856054687499,27.230769236123024L80.031283203125,27.230769230983384L80.21308984375,27.23076923077781L81.158484375,27.230769230769596L81.23120703125,27.230769230769255L81.5948203125,27.230769230769226L81.994794921875,27.230769230769226L82.10387890625,27.230769230769226L82.21296289062501,27.230769230769226L82.940189453125,27.230769230769226L83.158357421875,27.230769230769226L83.41288671875,27.230769230769226L83.6310546875,27.230769230769226L83.99466796875001,27.230769230769226L84.21283593749999,27.230769230769226L84.321919921875,27.230769230769226L84.612810546875,27.230769230769226L84.72189453125,27.230769230769226L84.830978515625,27.230769230769226L84.9400625,27.230769230769226L84.97642382812501,27.230769230769226L85.63092773437499,27.230769230769226L86.17634765625,27.230769230769226L86.721767578125,27.230769230769226L86.8308515625,27.230769230769226L86.867212890625,27.230769230769226L86.939935546875,27.230769230769226L86.976296875,27.230769230769226L87.77624609375,27.230769230769226L87.958052734375,27.230769230769226L88.06713671875,27.230769230769226L88.21258203125001,27.230769230769226L88.2853046875,27.230769230769226L88.43075,27.230769230769226L88.5761953125,27.230769230769226L88.72164062499999,27.230769230769226L89.630673828125,27.230769230769226L89.66703515625001,27.230769230769226L90.067009765625,27.230769230769226L90.35790039062499,27.230769230769226L90.39426171875,27.230769230769226L90.50334570312499,27.230769230769226L90.576068359375,27.230769230769226L90.939681640625,27.230769230769226L91.1942109375,27.230769230769226L91.739630859375,27.230769230769226L91.7759921875,27.230769230769226L91.885076171875,27.230769230769226L92.75774804687501,27.230769230769226L92.794109375,27.230769230769226L92.86683203125,27.230769230769226L93.375890625,27.230769230769226L93.412251953125,27.230769230769226L93.73950390625,27.230769230769226L93.957671875,27.230769230769226L94.1031171875,27.230769230769226L94.430369140625,27.230769230769226L94.68489843750001,27.230769230769226L94.72125976562499,27.230769230769226L94.90306640624999,27.230769230769226L95.19395703125,27.230769230769226L95.521208984375,27.230769230769226L95.703015625,27.230769230769226L95.884822265625,27.230769230769226L95.99390625000001,27.230769230769226L96.17571289062501,27.230769230769226L96.284796875,27.230769230769226L96.4302421875,27.230769230769226L96.7211328125,27.230769230769226L97.0120234375,27.230769230769226L97.266552734375,27.230769230769226L97.52108203125,27.230769230769226L97.84833398437499,27.230769230769226L97.99377929687499,27.230769230769226L98.030140625,27.230769230769226L98.066501953125,27.230769230769226L98.13922460937499,27.230769230769226L98.24830859375,27.230769230769226L98.502837890625,27.230769230769226L98.83008984375,27.230769230769226L99.19370312500001,27.230769230769226L99.3391484375,27.230769230769226L99.41187109375,27.230769230769226L99.520955078125,27.230769230769226L99.70276171875,27.230769230769226L99.811845703125,27.230769230769226L99.84820703125,27.230769230769226L99.884568359375,27.230769230769226L100.066375,27.230769230769226L100.57543359375,27.230769230769226L100.90268554687499,27.230769230769226L101.120853515625,27.230769230769226L101.37538281249999,27.230769230769226L101.411744140625,27.230769230769226L101.73899609375,27.230769230769226L101.99352539062501,27.230769230769226L102.429861328125,27.230769230769226L102.75711328125,27.230769230769226L102.90255859375,27.230769230769226L103.266171875,27.230769230769226L103.4116171875,27.230769230769226L103.59342382812501,27.230769230769226L103.73886914062501,27.230769230769226L104.21156640625,27.230769230769226L104.320650390625,27.230769230769226L104.538818359375,27.230769230769226L104.5751796875,27.230769230769226L104.611541015625,27.230769230769226L105.847826171875,27.230769230769226L106.065994140625,27.230769230769226L106.3205234375,27.230769230769226L106.53869140625001,27.230769230769226L106.68413671875001,27.230769230769226L106.756859375,27.230769230769226L106.82958203125001,27.230769230769226L107.04775,27.230769230769226L107.156833984375,27.230769230769226L107.22955664062499,27.230769230769226L107.338640625,27.230769230769226L107.884060546875,27.230769230769226L107.956783203125,27.230769230769226L108.39311914062499,27.230769230769226L108.42948046875,27.230769230769226L108.465841796875,27.230769230769226L108.974900390625,27.230769230769226L109.120345703125,27.230769230769226L109.265791015625,27.230769230769226L109.556681640625,27.230769230769226L109.702126953125,27.230769230769226L109.99301757812499,27.230769230769226L110.065740234375,27.230769230769226L110.17482421874999,27.230769230769226L110.283908203125,27.230769230769226L110.3929921875,27.230769230769226L110.574798828125,27.230769230769226L111.26566406250001,27.230769230769226L111.702,27.230769230769226L111.738361328125,27.230769230769226L111.8474453125,27.230769230769226L111.883806640625,27.230769230769226L111.956529296875,27.230769230769226L112.029251953125,27.230769230769226L112.174697265625,27.230769230769226L112.320142578125,27.230769230769226L112.50194921875,27.230769230769226L112.574671875,27.230769230769226L113.120091796875,27.230769230769226L113.265537109375,27.230769230769226L113.52006640625,27.230769230769226L114.210931640625,27.230769230769226L114.32001562500001,27.230769230769226L114.35637695312501,27.230769230769226L114.501822265625,27.230769230769226L114.57454492187499,27.230769230769226L114.7563515625,27.230769230769226L115.083603515625,27.230769230769226L115.229048828125,27.230769230769226L115.301771484375,27.230769230769226L115.374494140625,27.230769230769226L115.519939453125,27.230769230769226L115.88355273437499,27.230769230769226L115.956275390625,27.230769230769226L116.02899804687499,27.230769230769226L116.065359375,27.230769230769226L116.2108046875,27.230769230769226L116.31988867187499,27.230769230769226L116.610779296875,27.230769230769226L116.756224609375,27.230769230769226L117.26528320312501,27.230769230769226L117.41072851562501,27.230769230769226L117.48345117187499,27.230769230769226L117.6652578125,27.230769230769226L117.701619140625,27.230769230769226L117.77434179687499,27.230769230769226L117.88342578125,27.230769230769226L117.9561484375,27.230769230769226L118.02887109375,27.230769230769226L118.065232421875,27.230769230769226L118.31976171875,27.230769230769226L118.428845703125,27.230769230769226L118.61065234375,27.230769230769226L119.301517578125,27.230769230769226L119.665130859375,27.230769230769226L119.883298828125,27.230769230769226L120.101466796875,27.230769230769226L120.246912109375,27.230769230769226L120.2832734375,27.230769230769226L120.683248046875,27.230769230769226L120.71960937499999,27.230769230769226L120.79233203125,27.230769230769226L121.265029296875,27.230769230769226L121.62864257812501,27.230769230769226L121.95589453125001,27.230769230769226L122.574037109375,27.230769230769226L123.228541015625,27.230769230769226L123.26490234375001,27.230769230769226L123.337625,27.230769230769226L123.62851562499999,27.230769230769226L123.70123828125,27.230769230769226L123.84668359375,27.230769230769226L124.210296875,27.230769230769226L124.5011875,27.230769230769226L124.537548828125,27.230769230769226L124.9375234375,27.230769230769226L125.2284140625,27.230769230769226L125.44658203125,27.230769230769226L125.482943359375,27.230769230769226L125.555666015625,27.230769230769226L125.628388671875,27.230769230769226L125.8101953125,27.230769230769226L126.71922851562499,27.230769230769226L126.75558984375,27.230769230769226L127.119203125,27.230769230769226L127.19192578125,27.230769230769226L127.33737109375,27.230769230769226L127.373732421875,27.230769230769226L127.882791015625,27.230769230769226L128.100958984375,27.230769230769226L128.282765625,27.230769230769226L128.35548828125,27.230769230769226L128.4282109375,27.230769230769226L128.50093359375,27.230769230769226L128.973630859375,27.230769230769226L129.119076171875,27.230769230769226L129.191798828125,27.230769230769226L129.3008828125,27.230769230769226L129.628134765625,27.230769230769226L129.66449609375,27.230769230769226L130.028109375,27.230769230769226L130.10083203125,27.230769230769226L130.53716796875,27.230769230769226L130.573529296875,27.230769230769226L130.609890625,27.230769230769226L130.7553359375,27.230769230769226L130.90078125,27.230769230769226L131.11894921875,27.230769230769226L131.737091796875,27.230769230769226L131.955259765625,27.230769230769226L131.99162109374998,27.230769230769226L132.28251171875,27.230769230769226L132.5006796875,27.230769230769226L132.71884765625,27.230769230769226L132.900654296875,27.230769230769226L133.59151953125,27.230769230769226L133.73696484375,27.230769230769226L133.8096875,27.230769230769226L133.991494140625,27.230769230769226L134.17330078125,27.230769230769226L134.645998046875,27.230769230769226L134.90052734374999,27.230769230769226L135.445947265625,27.230769230769226L135.882283203125,27.230769230769226L135.9913671875,27.230769230769226L136.20953515625,27.230769230769226L136.50042578125,27.230769230769226L136.53678710937498,27.230769230769226L136.57314843749998,27.230769230769226L136.609509765625,27.230769230769226L136.93676171875,27.230769230769226L137.77307226562502,27.230769230769226L137.80943359375001,27.230769230769226L137.84579492187498,27.230769230769226L138.10032421875,27.230769230769226L138.500298828125,27.230769230769226L138.573021484375,27.230769230769226L139.009357421875,27.230769230769226L139.04571875,27.230769230769226L139.154802734375,27.230769230769226L139.227525390625,27.230769230769226L139.26388671875,27.230769230769226L139.336609375,27.230769230769226L140.027474609375,27.230769230769226L140.318365234375,27.230769230769226L140.754701171875,27.230769230769226L140.7910625,27.230769230769226L141.08195312499998,27.230769230769226L141.11831445312498,27.230769230769226L141.336482421875,27.230769230769226L141.44556640625,27.230769230769226L141.663734375,27.230769230769226L141.8091796875,27.230769230769226L142.42732226562498,27.230769230769226L142.500044921875,27.230769230769226L142.53640625,27.230769230769226L142.572767578125,27.230769230769226L142.9727421875,27.230769230769226L143.62724609375002,27.230769230769226L144.245388671875,27.230769230769226L144.49991796875,27.230769230769226L144.536279296875,27.230769230769226L144.64536328125,27.230769230769226L145.22714453125002,27.230769230769226L145.37258984375,27.230769230769226L145.554396484375,27.230769230769226L145.62711914062498,27.230769230769226L145.69984179687498,27.230769230769226L145.772564453125,27.230769230769226L145.845287109375,27.230769230769226L145.99073242187498,27.230769230769226L146.02709375,27.230769230769226L146.427068359375,27.230769230769226L146.53615234375002,27.230769230769226L146.82704296875002,27.230769230769226L146.936126953125,27.230769230769226L146.97248828124998,27.230769230769226L147.26337890624998,27.230769230769226L147.80879882812502,27.230769230769226L147.954244140625,27.230769230769226L148.026966796875,27.230769230769226L148.57238671875,27.230769230769226L149.045083984375,27.230769230769226L149.88139453125,27.230769230769226L150.426814453125,27.230769230769226L150.46317578125,27.230769230769226L150.68134375,27.230769230769226L150.717705078125,27.230769230769226L150.89951171875,27.230769230769226L151.08131835937502,27.230769230769226L151.226763671875,27.230769230769226L151.299486328125,27.230769230769226L151.88126757812498,27.230769230769226L152.2812421875,27.230769230769226L152.535771484375,27.230769230769226L152.5721328125,27.230769230769226L152.826662109375,27.230769230769226L152.93574609375003,27.230769230769226L153.80841796875,27.230769230769226L153.917501953125,27.230769230769226L154.17203125,27.230769230769226L154.28111523437502,27.230769230769226L154.3174765625,27.230769230769226L154.39019921875,27.230769230769226L154.426560546875,27.230769230769226L155.153787109375,27.230769230769226L155.33559375000002,27.230769230769226L155.662845703125,27.230769230769226L155.735568359375,27.230769230769226L155.808291015625,27.230769230769226L156.06282031249998,27.230769230769226L156.535517578125,27.230769230769226L156.60824023437502,27.230769230769226L156.826408203125,27.230769230769226L157.117298828125,27.230769230769226L157.335466796875,27.230769230769226L157.371828125,27.230769230769226L157.55363476562502,27.230769230769226L157.73544140625,27.230769230769226L157.98997070312498,27.230769230769226L158.426306640625,27.230769230769226L158.571751953125,27.230769230769226L159.04444921874997,27.230769230769226L159.11717187500003,27.230769230769226L159.18989453125,27.230769230769226L159.298978515625,27.230769230769226L159.48078515625,27.230769230769226L160.098927734375,27.230769230769226L160.280734375,27.230769230769226L160.93523828125,27.230769230769226L161.08068359375,27.230769230769226L161.189767578125,27.230769230769226L161.37157421875,27.230769230769226L161.626103515625,27.230769230769226L161.771548828125,27.230769230769226L161.84427148437499,27.230769230769226L162.062439453125,27.230769230769226L162.09880078125002,27.230769230769226L162.31696875,27.230769230769226L162.571498046875,27.230769230769226L162.78966601562502,27.230769230769226L162.89875,27.230769230769226L163.11691796875,27.230769230769226L163.516892578125,27.230769230769226L163.58961523437497,27.230769230769226L163.953228515625,27.230769230769226L164.0623125,27.230769230769226L164.13503515625,27.230769230769226L164.316841796875,27.230769230769226L164.898623046875,27.230769230769226L164.971345703125,27.230769230769226L165.189513671875,27.230769230769226L165.334958984375,27.230769230769226L165.40768164062501,27.230769230769226L165.916740234375,27.230769230769226L166.35307617187502,27.230769230769226L166.5348828125,27.230769230769226L166.97121875,27.230769230769226L167.007580078125,27.230769230769226L167.225748046875,27.230769230769226L167.262109375,27.230769230769226L167.77116796875,27.230769230769226L167.91661328125002,27.230769230769226L167.98933593750002,27.230769230769226L168.06205859375,27.230769230769226L168.171142578125,27.230769230769226L168.2802265625,27.230769230769226L168.898369140625,27.230769230769226L169.29834375,27.230769230769226L169.334705078125,27.230769230769226L169.55287304687502,27.230769230769226L169.80740234375,27.230769230769226L170.68007421875,27.230769230769226L170.89824218750002,27.230769230769226L170.97096484375,27.230769230769226L171.734552734375,27.230769230769226L171.84363671875,27.230769230769226L171.98908203125,27.230769230769226L172.025443359375,27.230769230769226L172.0618046875,27.230769230769226L172.27997265625,27.230769230769226L172.389056640625,27.230769230769226L172.46177929687502,27.230769230769226L172.78903125,27.230769230769226L173.043560546875,27.230769230769226L173.2253671875,27.230769230769226L173.51625781250002,27.230769230769226L173.661703125,27.230769230769226L173.80714843750002,27.230769230769226L174.279845703125,27.230769230769226L174.352568359375,27.230769230769226L174.46165234375,27.230769230769226L174.89798828124998,27.230769230769226L175.04343359375,27.230769230769226L175.225240234375,27.230769230769226L175.297962890625,27.230769230769226L175.66157617187503,27.230769230769226L175.73429882812502,27.230769230769226L175.80702148437499,27.230769230769226L176.27971875,27.230769230769226L176.8615,27.230769230769226L177.043306640625,27.230769230769226L177.29783593750003,27.230769230769226L178.206869140625,27.230769230769226L178.24323046875,27.230769230769226L178.279591796875,27.230769230769226L178.53412109375,27.230769230769226L178.897734375,27.230769230769226L179.188625,27.230769230769226L179.44315429687498,27.230769230769226L179.588599609375,27.230769230769226L179.98857421875002,27.230769230769226L180.20674218750003,27.230769230769226L180.42491015624998,27.230769230769226L181.0794140625,27.230769230769226L181.224859375,27.230769230769226L181.62483398437502,27.230769230769226L181.806640625,27.230769230769226L181.98844726562498,27.230769230769226L182.133892578125,27.230769230769226L182.17025390625,27.230769230769226L182.570228515625,27.230769230769226L182.60658984375002,27.230769230769226L183.006564453125,27.230769230769226L183.079287109375,27.230769230769226L183.1156484375,27.230769230769226L183.370177734375,27.230769230769226L183.47926171875,27.230769230769226L183.515623046875,27.230769230769226L183.551984375,27.230769230769226L183.77015234375,27.230769230769226L184.57010156249999,27.230769230769226L185.188244140625,27.230769230769226L185.37005078125,27.230769230769226L185.406412109375,27.230769230769226L185.479134765625,27.230769230769226L185.770025390625,27.230769230769226L187.87898242187498,27.230769230769226L188.388041015625,27.230769230769226L188.42440234375002,27.230769230769226L188.82437695312498,27.230769230769226L188.86073828125,27.230769230769226L188.9334609375,27.230769230769226L189.00618359375002,27.230769230769226L189.11526757812499,27.230769230769226L189.15162890625,27.230769230769226L189.2243515625,27.230769230769226L190.06066210937502,27.230769230769226L190.24246875,27.230769230769226L190.35155273437502,27.230769230769226L190.46063671875,27.230769230769226L190.64244335937502,27.230769230769226L191.04241796875,27.230769230769226L191.369669921875,27.230769230769226L191.47875390625,27.230769230769226L191.515115234375,27.230769230769226L191.8423671875,27.230769230769226L192.06053515625,27.230769230769226L192.64231640625,27.230769230769226L192.860484375,27.230769230769226L193.0059296875,27.230769230769226L193.333181640625,27.230769230769226L193.405904296875,27.230769230769226L193.73315625,27.230769230769226L193.8786015625,27.230769230769226L194.09676953125,27.230769230769226L194.278576171875,27.230769230769226L194.496744140625,27.230769230769226L194.82399609375,27.230769230769226L195.078525390625,27.230769230769226L195.223970703125,27.230769230769226L195.55122265625,27.230769230769226L196.096642578125,27.230769230769226L196.351171875,27.230769230769226L196.460255859375,27.230769230769226L196.56933984375,27.230769230769226L196.71478515625,27.230769230769226L196.751146484375,27.230769230769226L197.44201171875,27.230769230769226L197.478373046875,27.230769230769226L197.551095703125,27.230769230769226L197.769263671875,27.230769230769226L197.87834765625,27.230769230769226L198.860103515625,27.230769230769226L199.078271484375,27.230769230769226L199.223716796875,27.230769230769226L199.33280078125,27.230769230769226L199.62369140625,27.230769230769226L199.6964140625,27.230769230769226L200.314556640625,27.230769230769226L200.35091796875,27.230769230769226L201.041783203125,27.230769230769226L201.07814453125002,27.230769230769226L201.187228515625,27.230769230769226L201.44175781250001,27.230769230769226L201.51448046874998,27.230769230769226L201.80537109374998,27.230769230769226L201.87809374999998,27.230769230769226L201.914455078125,27.230769230769226L202.38715234375,27.230769230769226L202.45987499999998,27.230769230769226L202.82348828125,27.230769230769226L202.93257226562503,27.230769230769226L203.332546875,27.230769230769226L203.44163085937498,27.230769230769226L203.514353515625,27.230769230769226L203.587076171875,27.230769230769226L204.023412109375,27.230769230769226L204.6415546875,27.230769230769226L205.186974609375,27.230769230769226L205.405142578125,27.230769230769226L205.659671875,27.230769230769226L205.9505625,27.230769230769226L206.0960078125,27.230769230769226L206.35053710937498,27.230769230769226L206.3868984375,27.230769230769226L206.42325976562498,27.230769230769226L206.786873046875,27.230769230769226L207.55046093750002,27.230769230769226L207.732267578125,27.230769230769226L207.91407421875,27.230769230769226L208.1322421875,27.230769230769226L208.49585546875,27.230769230769226L208.677662109375,27.230769230769226L208.89583007812502,27.230769230769226L209.04127539062497,27.230769230769226L209.07763671875,27.230769230769226L209.36852734375,27.230769230769226L209.477611328125,27.230769230769226L209.51397265625,27.230769230769226L209.5866953125,27.230769230769226L209.695779296875,27.230769230769226L209.732140625,27.230769230769226L209.768501953125,27.230769230769226L210.02303125,27.230769230769226L210.132115234375,27.230769230769226L210.16847656250002,27.230769230769226L210.204837890625,27.230769230769226L210.24119921875,27.230769230769226L210.313921875,27.230769230769226L210.423005859375,27.230769230769226L210.45936718750002,27.230769230769226L210.67753515624997,27.230769230769226L210.89570312499998,27.230769230769226L210.96842578124998,27.230769230769226L211.077509765625,27.230769230769226L211.80473632812502,27.230769230769226L211.877458984375,27.230769230769226L212.09562695312502,27.230769230769226L212.35015625,27.230769230769226L212.78649218750002,27.230769230769226L213.477357421875,27.230769230769226L213.550080078125,27.230769230769226L214.131861328125,27.230769230769226L214.2409453125,27.230769230769226L214.31366796875,27.230769230769226L214.350029296875,27.230769230769226L215.04089453125,27.230769230769226L215.91356640625,27.230769230769226L216.022650390625,27.230769230769226L216.49534765625,27.230769230769226L216.78623828124998,27.230769230769226L217.07712890624998,27.230769230769226L217.113490234375,27.230769230769226L217.22257421875,27.230769230769226L217.295296875,27.230769230769226L217.33165820312502,27.230769230769226L217.840716796875,27.230769230769226L218.13160742187497,27.230769230769226L218.931556640625,27.230769230769226L219.149724609375,27.230769230769226L219.25880859375002,27.230769230769226L219.513337890625,27.230769230769226L219.98603515624998,27.230769230769226L220.05875781249998,27.230769230769226L220.095119140625,27.230769230769226L220.34964843749998,27.230769230769226L221.00415234375,27.230769230769226L221.58593359375,27.230769230769226L221.840462890625,27.230769230769226L222.02226953125,27.230769230769226L222.058630859375,27.230769230769226L222.276798828125,27.230769230769226L222.74949609375003,27.230769230769226L222.82221875,27.230769230769226L223.04038671875,27.230769230769226L223.149470703125,27.230769230769226L223.98578125,27.230769230769226L224.16758789062501,27.230769230769226L224.64028515625,27.230769230769226L224.78573046875002,27.230769230769226L225.44023437500002,27.230769230769226L225.73112500000002,27.230769230769226L225.87657031249998,27.230769230769226L226.567435546875,27.230769230769226L226.67651953125,27.230769230769226L226.71288085937502,27.230769230769226L226.785603515625,27.230769230769226L226.858326171875,27.230769230769226L226.8946875,27.230769230769226L227.0401328125,27.230769230769226L227.07649414062502,27.230769230769226L227.47646875,27.230769230769226L227.69463671875,27.230769230769226L227.84008203125,27.230769230769226L228.676392578125,27.230769230769226L229.14908984374998,27.230769230769226L229.43998046874998,27.230769230769226L229.73087109374998,27.230769230769226L230.130845703125,27.230769230769226L230.16720703125,27.230769230769226L230.71262695312498,27.230769230769226L230.8217109375,27.230769230769226L231.221685546875,27.230769230769226L231.25804687500002,27.230769230769226L231.367130859375,27.230769230769226L231.98527343749998,27.230769230769226L232.13071875,27.230769230769226L232.2761640625,27.230769230769226L232.60341601562502,27.230769230769226L232.78522265625,27.230769230769226L232.8579453125,27.230769230769226L232.93066796875,27.230769230769226L233.25791992187501,27.230769230769226L233.4397265625,27.230769230769226L233.62153320312498,27.230769230769226L234.130591796875,27.230769230769226L234.16695312500002,27.230769230769226L234.23967578125,27.230769230769226L234.421482421875,27.230769230769226L234.74873437500003,27.230769230769226L234.96690234374998,27.230769230769226L235.439599609375,27.230769230769226L235.7668515625,27.230769230769226L236.021380859375,27.230769230769226L236.16682617187502,27.230769230769226L236.38499414062503,27.230769230769226L236.60316210937498,27.230769230769226L236.78496875,27.230769230769226L236.89405273437498,27.230769230769226L236.966775390625,27.230769230769226L237.36675,27.230769230769226L237.5121953125,27.230769230769226L237.839447265625,27.230769230769226L238.13033789062501,27.230769230769226L238.31214453125,27.230769230769226L238.493951171875,27.230769230769226L238.74848046875,27.230769230769226L238.930287109375,27.230769230769226L239.00300976562502,27.230769230769226L239.07573242187502,27.230769230769226L239.11209374999999,27.230769230769226L239.43934570312499,27.230769230769226L239.47570703125,27.230769230769226L239.51206835937498,27.230769230769226L239.730236328125,27.230769230769226L240.166572265625,27.230769230769226L240.34837890625002,27.230769230769226L240.63926953125002,27.230769230769226L240.71199218750002,27.230769230769226L241.07560546874998,27.230769230769226L241.14832812499998,27.230769230769226L241.69374804687502,27.230769230769226L242.09372265625,27.230769230769226L242.1664453125,27.230769230769226L242.311890625,27.230769230769226L242.38461328125,27.230769230769226L242.7482265625,27.230769230769226L242.857310546875,27.230769230769226L244.093595703125,27.230769230769226L244.34812499999998,27.230769230769226L244.457208984375,27.230769230769226L244.60265429687502,27.230769230769226L245.111712890625,27.230769230769226L245.5116875,27.230769230769226L245.766216796875,27.230769230769226L246.02074609375,27.230769230769226L246.384359375,27.230769230769226L246.493443359375,27.230769230769226L246.67525,27.230769230769226L246.857056640625,27.230769230769226L247.075224609375,27.230769230769226L247.147947265625,27.230769230769226L247.51156054687502,27.230769230769226L247.547921875,27.230769230769226L248.16606445312502,27.230769230769226L248.2751484375,27.230769230769226L248.52967773437499,27.230769230769226L248.89329101562498,27.230769230769226L248.966013671875,27.230769230769226L249.402349609375,27.230769230769226L249.51143359375,27.230769230769226L249.58415625,27.230769230769226L249.838685546875,27.230769230769226L250.202298828125,27.230769230769226L250.493189453125,27.230769230769226L250.565912109375,27.230769230769226L250.638634765625,27.230769230769226L250.74771875,27.230769230769226L250.82044140624998,27.230769230769226L251.147693359375,27.230769230769226L251.51130664062498,27.230769230769226L251.54766796875,27.230769230769226L251.83855859375,27.230769230769226L251.91128125,27.230769230769226L252.05672656250002,27.230769230769226L252.093087890625,27.230769230769226L252.783953125,27.230769230769226L252.965759765625,27.230769230769226L253.038482421875,27.230769230769226L253.07484374999999,27.230769230769226L253.183927734375,27.230769230769226L253.5111796875,27.230769230769226L254.16568359375,27.230769230769226L254.529296875,27.230769230769226L254.89291015625,27.230769230769226L255.07471679687498,27.230769230769226L255.220162109375,27.230769230769226L255.2565234375,27.230769230769226L255.40196875,27.230769230769226L255.62013671875002,27.230769230769226L255.656498046875,27.230769230769226L255.692859375,27.230769230769226L255.801943359375,27.230769230769226L255.91102734375002,27.230769230769226L256.4200859375,27.230769230769226L256.601892578125,27.230769230769226L256.7109765625,27.230769230769226L257.329119140625,27.230769230769226L257.36548046875004,27.230769230769226L257.51092578124997,27.230769230769226L257.692732421875,27.230769230769226L257.94726171875,27.230769230769226L258.274513671875,27.230769230769226L258.347236328125,27.230769230769226L258.71084960937503,27.230769230769226L258.929017578125,27.230769230769226L259.001740234375,27.230769230769226L259.219908203125,27.230769230769226L259.292630859375,27.230769230769226L259.365353515625,27.230769230769226L259.6198828125,27.230769230769226L259.801689453125,27.230769230769226L259.874412109375,27.230769230769226L259.947134765625,27.230769230769226L259.98349609375003,27.230769230769226L260.238025390625,27.230769230769226L260.528916015625,27.230769230769226L260.78344531249996,27.230769230769226L260.928890625,27.230769230769226L261.110697265625,27.230769230769226L261.21978125,27.230769230769226L261.8015625,27.230769230769226L262.16517578125,27.230769230769226L262.201537109375,27.230769230769226L262.274259765625,27.230769230769226L262.492427734375,27.230769230769226L262.5287890625,27.230769230769226L262.71059570312497,27.230769230769226L262.965125,27.230769230769226L263.146931640625,27.230769230769226L263.25601562500003,27.230769230769226L263.4014609375,27.230769230769226L263.61962890625,27.230769230769226L264.092326171875,27.230769230769226L264.34685546875,27.230769230769226L265.037720703125,27.230769230769226L265.764947265625,27.230769230769226L265.87403125000003,27.230769230769226L266.0194765625,27.230769230769226L266.055837890625,27.230769230769226L266.3103671875,27.230769230769226L266.928509765625,27.230769230769226L267.328484375,27.230769230769226L267.72845898437504,27.230769230769226L267.98298828125,27.230769230769226L268.20115625,27.230769230769226L269.07382812500003,27.230769230769226L269.910138671875,27.230769230769226L270.237390625,27.230769230769226L270.782810546875,27.230769230769226L270.819171875,27.230769230769226L271.07370117187503,27.230769230769226L271.21914648437496,27.230769230769226L271.582759765625,27.230769230769226L271.69184375000003,27.230769230769226L271.728205078125,27.230769230769226L272.091818359375,27.230769230769226L272.237263671875,27.230769230769226L272.528154296875,27.230769230769226L272.564515625,27.230769230769226L272.673599609375,27.230769230769226" style="fill: none;" fill="none"></path></g></g></g></g><g opacity="0.2"><g><g><g><path stroke="rgb(51, 187, 238)" stroke-width="2px" d="M36.543134765625,152.4923076923077L37.01583203125,152.4923076923077L37.234,149.76923076923077L37.81578125,147.04615384615386L37.88850390625,149.76923076923077L37.997587890625,145.68461538461537L38.288478515624995,107.56153846153846L38.3975625,68.07692307692307L38.942982421875,27.230769230769226L39.05206640625,27.230769230769226L39.779292968750006,27.230769230769226L40.07018359375,27.230769230769226L40.215628906250004,27.230769230769226L40.94285546875,27.230769230769226L41.415552734375,27.230769230769226L41.81552734375,27.230769230769226L41.997333984375004,27.230769230769226L42.106417968749994,27.230769230769226L42.433669921875,27.230769230769226L42.833644531249995,27.230769230769226L43.015451171875,27.230769230769226L43.088173828125,27.230769230769226L43.12453515625,27.230769230769226L43.26998046875,27.230769230769226L43.560871093749995,27.230769230769226L43.888123046875,27.230769230769226L44.0699296875,27.230769230769226L44.469904296875,27.230769230769226L44.688072265625,27.230769230769226L44.86987890625,27.230769230769226L45.415298828125,27.230769230769226L45.633466796875,27.230769230769226L45.815273437500004,27.230769230769226L46.069802734374996,27.230769230769226L46.215248046875,27.230769230769226L46.287970703125,27.230769230769226L46.9788359375,27.230769230769226L47.160642578125,27.230769230769226L47.378810546874995,27.230769230769226L47.5606171875,27.230769230769226L47.63333984375,27.230769230769226L47.924230468750004,27.230769230769226L48.36056640625,27.230769230769226L48.687818359375,27.230769230769226L48.978708984375,27.230769230769226L49.560490234375,27.230769230769226L49.705935546875,27.230769230769226L50.069548828125,27.230769230769226L51.669447265625,27.230769230769226L51.70580859375,27.230769230769226L52.323951171875,27.230769230769226L52.396673828125,27.230769230769226L52.43303515625,27.230769230769226L52.542119140625005,27.230769230769226L53.0875390625,27.230769230769226L53.196623046875004,27.230769230769226L53.232984375,27.230769230769226L53.59659765625,27.230769230769226L54.214740234375,27.230769230769226L54.287462890625,27.230769230769226L54.978328125,27.230769230769226L55.05105078125,27.230769230769226L55.160134765624996,27.230769230769226L55.451025390625,27.230769230769226L55.669193359374994,27.230769230769226L55.741916015624994,27.230769230769226L55.851,27.230769230769226L56.06916796875,27.230769230769226L56.250974609375,27.230769230769226L56.614587890624996,27.230769230769226L56.832755859375,27.230769230769226L57.050923828125,27.230769230769226L57.196369140624995,27.230769230769226L57.414537109375,27.230769230769226L57.487259765625,27.230769230769226L57.66906640625,27.230769230769226L57.705427734375,27.230769230769226L57.923595703125,27.230769230769226L58.25084765625,27.230769230769226L58.9053515625,27.230769230769226L58.97807421875,27.230769230769226L59.41441015625,27.230769230769226L59.668939453125,27.230769230769226L59.705300781249996,27.230769230769226L59.778023437499996,27.230769230769226L59.887107421875,27.230769230769226L59.959830078125,27.230769230769226L60.396166015625,27.230769230769226L60.50525,27.230769230769226L60.6506953125,27.230769230769226L60.759779296875,27.230769230769226L60.86886328125,27.230769230769226L61.014308593749995,27.230769230769226L61.050669921875,27.230769230769226L61.196115234375,27.230769230769226L61.377921875,27.230769230769226L62.32331640625,27.230769230769226L62.46876171875,27.230769230769226L62.61420703125,27.230769230769226L62.650568359375,27.230769230769226L62.90509765625,27.230769230769226L63.23234960937501,27.230769230769226L63.377794921875,27.230769230769226L63.523240234375,27.230769230769226L63.705046875,27.230769230769226L63.8504921875,27.230769230769226L64.177744140625,27.230769230769226L64.323189453125,27.230769230769226L64.35955078125001,27.230769230769226L64.39591210937499,27.230769230769226L64.468634765625,27.230769230769226L64.50499609375,27.230769230769226L64.7231640625,27.230769230769226L64.904970703125,27.230769230769226L64.977693359375,27.230769230769226L65.15950000000001,27.230769230769226L65.19586132812499,27.230769230769226L65.23222265625,27.230769230769226L65.37766796875,27.230769230769226L65.52311328125,27.230769230769226L65.704919921875,27.230769230769226L65.74128125,27.230769230769226L65.777642578125,27.230769230769226L66.61395312500001,27.230769230769226L66.7593984375,27.230769230769226L67.959322265625,27.230769230769226L68.14112890625,27.230769230769226L68.2138515625,27.230769230769226L68.43201953124999,27.230769230769226L68.72291015625,27.230769230769226L68.94107812499999,27.230769230769226L69.08652343749999,27.230769230769226L69.341052734375,27.230769230769226L69.413775390625,27.230769230769226L69.631943359375,27.230769230769226L69.70466601562501,27.230769230769226L70.213724609375,27.230769230769226L70.2500859375,27.230769230769226L70.61369921875,27.230769230769226L70.722783203125,27.230769230769226L71.05003515625,27.230769230769226L71.19548046874999,27.230769230769226L71.34092578125,27.230769230769226L71.668177734375,27.230769230769226L71.7045390625,27.230769230769226L71.92270703125,27.230769230769226L71.95906835937501,27.230769230769226L72.140875,27.230769230769226L72.5772109375,27.230769230769226L72.79537890625,27.230769230769226L72.904462890625,27.230769230769226L73.23171484375,27.230769230769226L73.340798828125,27.230769230769226L73.63168945312499,27.230769230769226L74.068025390625,27.230769230769226L74.3225546875,27.230769230769226L74.795251953125,27.230769230769226L75.01341992187501,27.230769230769226L75.12250390624999,27.230769230769226L75.1952265625,27.230769230769226L75.340671875,27.230769230769226L75.4861171875,27.230769230769226L75.55883984375,27.230769230769226L75.740646484375,27.230769230769226L75.7770078125,27.230769230769226L76.104259765625,27.230769230769226L76.32242773437501,27.230769230769226L76.46787304687501,27.230769230769226L76.50423437500001,27.230769230769226L76.86784765624999,27.230769230769226L77.049654296875,27.230769230769226L77.558712890625,27.230769230769226L78.35866210937499,27.230769230769226L78.3950234375,27.230769230769226L78.54046875,28.592307692307685L78.576830078125,27.230769230769226L78.61319140625,27.230769230769226L79.26769531250001,27.230769230769226L79.70403125,27.230769230769226L79.740392578125,27.230769230769226L79.95856054687499,27.230769230769226L80.031283203125,27.230769230769226L80.21308984375,27.230769230769226L81.158484375,27.230769230769226L81.23120703125,27.230769230769226L81.5948203125,27.230769230769226L81.994794921875,27.230769230769226L82.10387890625,27.230769230769226L82.21296289062501,27.230769230769226L82.940189453125,27.230769230769226L83.158357421875,27.230769230769226L83.41288671875,27.230769230769226L83.6310546875,27.230769230769226L83.99466796875001,27.230769230769226L84.21283593749999,27.230769230769226L84.321919921875,27.230769230769226L84.612810546875,27.230769230769226L84.72189453125,27.230769230769226L84.830978515625,27.230769230769226L84.9400625,27.230769230769226L84.97642382812501,27.230769230769226L85.63092773437499,27.230769230769226L86.17634765625,27.230769230769226L86.721767578125,27.230769230769226L86.8308515625,27.230769230769226L86.867212890625,27.230769230769226L86.939935546875,27.230769230769226L86.976296875,27.230769230769226L87.77624609375,27.230769230769226L87.958052734375,27.230769230769226L88.06713671875,27.230769230769226L88.21258203125001,27.230769230769226L88.2853046875,27.230769230769226L88.43075,27.230769230769226L88.5761953125,27.230769230769226L88.72164062499999,27.230769230769226L89.630673828125,27.230769230769226L89.66703515625001,27.230769230769226L90.067009765625,27.230769230769226L90.35790039062499,27.230769230769226L90.39426171875,27.230769230769226L90.50334570312499,27.230769230769226L90.576068359375,27.230769230769226L90.939681640625,27.230769230769226L91.1942109375,27.230769230769226L91.739630859375,27.230769230769226L91.7759921875,27.230769230769226L91.885076171875,27.230769230769226L92.75774804687501,27.230769230769226L92.794109375,27.230769230769226L92.86683203125,27.230769230769226L93.375890625,27.230769230769226L93.412251953125,27.230769230769226L93.73950390625,27.230769230769226L93.957671875,27.230769230769226L94.1031171875,27.230769230769226L94.430369140625,27.230769230769226L94.68489843750001,27.230769230769226L94.72125976562499,27.230769230769226L94.90306640624999,27.230769230769226L95.19395703125,27.230769230769226L95.521208984375,27.230769230769226L95.703015625,27.230769230769226L95.884822265625,27.230769230769226L95.99390625000001,27.230769230769226L96.17571289062501,27.230769230769226L96.284796875,27.230769230769226L96.4302421875,27.230769230769226L96.7211328125,27.230769230769226L97.0120234375,27.230769230769226L97.266552734375,27.230769230769226L97.52108203125,27.230769230769226L97.84833398437499,27.230769230769226L97.99377929687499,27.230769230769226L98.030140625,27.230769230769226L98.066501953125,27.230769230769226L98.13922460937499,27.230769230769226L98.24830859375,27.230769230769226L98.502837890625,27.230769230769226L98.83008984375,27.230769230769226L99.19370312500001,27.230769230769226L99.3391484375,27.230769230769226L99.41187109375,27.230769230769226L99.520955078125,27.230769230769226L99.70276171875,27.230769230769226L99.811845703125,27.230769230769226L99.84820703125,27.230769230769226L99.884568359375,27.230769230769226L100.066375,27.230769230769226L100.57543359375,27.230769230769226L100.90268554687499,27.230769230769226L101.120853515625,27.230769230769226L101.37538281249999,27.230769230769226L101.411744140625,27.230769230769226L101.73899609375,27.230769230769226L101.99352539062501,27.230769230769226L102.429861328125,27.230769230769226L102.75711328125,27.230769230769226L102.90255859375,27.230769230769226L103.266171875,27.230769230769226L103.4116171875,27.230769230769226L103.59342382812501,27.230769230769226L103.73886914062501,27.230769230769226L104.21156640625,27.230769230769226L104.320650390625,27.230769230769226L104.538818359375,27.230769230769226L104.5751796875,27.230769230769226L104.611541015625,27.230769230769226L105.847826171875,27.230769230769226L106.065994140625,27.230769230769226L106.3205234375,27.230769230769226L106.53869140625001,27.230769230769226L106.68413671875001,27.230769230769226L106.756859375,27.230769230769226L106.82958203125001,27.230769230769226L107.04775,27.230769230769226L107.156833984375,27.230769230769226L107.22955664062499,27.230769230769226L107.338640625,27.230769230769226L107.884060546875,27.230769230769226L107.956783203125,27.230769230769226L108.39311914062499,27.230769230769226L108.42948046875,27.230769230769226L108.465841796875,27.230769230769226L108.974900390625,27.230769230769226L109.120345703125,27.230769230769226L109.265791015625,27.230769230769226L109.556681640625,27.230769230769226L109.702126953125,27.230769230769226L109.99301757812499,27.230769230769226L110.065740234375,27.230769230769226L110.17482421874999,27.230769230769226L110.283908203125,27.230769230769226L110.3929921875,27.230769230769226L110.574798828125,27.230769230769226L111.26566406250001,27.230769230769226L111.702,27.230769230769226L111.738361328125,27.230769230769226L111.8474453125,27.230769230769226L111.883806640625,27.230769230769226L111.956529296875,27.230769230769226L112.029251953125,27.230769230769226L112.174697265625,27.230769230769226L112.320142578125,27.230769230769226L112.50194921875,27.230769230769226L112.574671875,27.230769230769226L113.120091796875,27.230769230769226L113.265537109375,27.230769230769226L113.52006640625,27.230769230769226L114.210931640625,27.230769230769226L114.32001562500001,27.230769230769226L114.35637695312501,27.230769230769226L114.501822265625,27.230769230769226L114.57454492187499,27.230769230769226L114.7563515625,27.230769230769226L115.083603515625,27.230769230769226L115.229048828125,27.230769230769226L115.301771484375,27.230769230769226L115.374494140625,27.230769230769226L115.519939453125,27.230769230769226L115.88355273437499,27.230769230769226L115.956275390625,27.230769230769226L116.02899804687499,27.230769230769226L116.065359375,27.230769230769226L116.2108046875,27.230769230769226L116.31988867187499,27.230769230769226L116.610779296875,27.230769230769226L116.756224609375,27.230769230769226L117.26528320312501,27.230769230769226L117.41072851562501,27.230769230769226L117.48345117187499,27.230769230769226L117.6652578125,27.230769230769226L117.701619140625,27.230769230769226L117.77434179687499,27.230769230769226L117.88342578125,27.230769230769226L117.9561484375,27.230769230769226L118.02887109375,27.230769230769226L118.065232421875,27.230769230769226L118.31976171875,27.230769230769226L118.428845703125,27.230769230769226L118.61065234375,27.230769230769226L119.301517578125,27.230769230769226L119.665130859375,27.230769230769226L119.883298828125,27.230769230769226L120.101466796875,27.230769230769226L120.246912109375,27.230769230769226L120.2832734375,27.230769230769226L120.683248046875,27.230769230769226L120.71960937499999,27.230769230769226L120.79233203125,27.230769230769226L121.265029296875,27.230769230769226L121.62864257812501,27.230769230769226L121.95589453125001,27.230769230769226L122.574037109375,27.230769230769226L123.228541015625,27.230769230769226L123.26490234375001,27.230769230769226L123.337625,27.230769230769226L123.62851562499999,27.230769230769226L123.70123828125,27.230769230769226L123.84668359375,27.230769230769226L124.210296875,27.230769230769226L124.5011875,27.230769230769226L124.537548828125,27.230769230769226L124.9375234375,27.230769230769226L125.2284140625,27.230769230769226L125.44658203125,27.230769230769226L125.482943359375,27.230769230769226L125.555666015625,27.230769230769226L125.628388671875,27.230769230769226L125.8101953125,27.230769230769226L126.71922851562499,27.230769230769226L126.75558984375,27.230769230769226L127.119203125,27.230769230769226L127.19192578125,27.230769230769226L127.33737109375,27.230769230769226L127.373732421875,27.230769230769226L127.882791015625,27.230769230769226L128.100958984375,27.230769230769226L128.282765625,27.230769230769226L128.35548828125,27.230769230769226L128.4282109375,27.230769230769226L128.50093359375,27.230769230769226L128.973630859375,27.230769230769226L129.119076171875,27.230769230769226L129.191798828125,27.230769230769226L129.3008828125,27.230769230769226L129.628134765625,27.230769230769226L129.66449609375,27.230769230769226L130.028109375,27.230769230769226L130.10083203125,27.230769230769226L130.53716796875,27.230769230769226L130.573529296875,27.230769230769226L130.609890625,27.230769230769226L130.7553359375,27.230769230769226L130.90078125,27.230769230769226L131.11894921875,27.230769230769226L131.737091796875,27.230769230769226L131.955259765625,27.230769230769226L131.99162109374998,27.230769230769226L132.28251171875,27.230769230769226L132.5006796875,27.230769230769226L132.71884765625,27.230769230769226L132.900654296875,27.230769230769226L133.59151953125,27.230769230769226L133.73696484375,27.230769230769226L133.8096875,27.230769230769226L133.991494140625,27.230769230769226L134.17330078125,27.230769230769226L134.645998046875,27.230769230769226L134.90052734374999,27.230769230769226L135.445947265625,27.230769230769226L135.882283203125,27.230769230769226L135.9913671875,27.230769230769226L136.20953515625,27.230769230769226L136.50042578125,27.230769230769226L136.53678710937498,27.230769230769226L136.57314843749998,27.230769230769226L136.609509765625,27.230769230769226L136.93676171875,27.230769230769226L137.77307226562502,27.230769230769226L137.80943359375001,27.230769230769226L137.84579492187498,27.230769230769226L138.10032421875,27.230769230769226L138.500298828125,27.230769230769226L138.573021484375,27.230769230769226L139.009357421875,27.230769230769226L139.04571875,27.230769230769226L139.154802734375,27.230769230769226L139.227525390625,27.230769230769226L139.26388671875,27.230769230769226L139.336609375,27.230769230769226L140.027474609375,27.230769230769226L140.318365234375,27.230769230769226L140.754701171875,27.230769230769226L140.7910625,27.230769230769226L141.08195312499998,27.230769230769226L141.11831445312498,27.230769230769226L141.336482421875,27.230769230769226L141.44556640625,27.230769230769226L141.663734375,27.230769230769226L141.8091796875,27.230769230769226L142.42732226562498,27.230769230769226L142.500044921875,27.230769230769226L142.53640625,27.230769230769226L142.572767578125,27.230769230769226L142.9727421875,27.230769230769226L143.62724609375002,27.230769230769226L144.245388671875,27.230769230769226L144.49991796875,27.230769230769226L144.536279296875,27.230769230769226L144.64536328125,27.230769230769226L145.22714453125002,27.230769230769226L145.37258984375,27.230769230769226L145.554396484375,27.230769230769226L145.62711914062498,27.230769230769226L145.69984179687498,27.230769230769226L145.772564453125,27.230769230769226L145.845287109375,27.230769230769226L145.99073242187498,27.230769230769226L146.02709375,27.230769230769226L146.427068359375,27.230769230769226L146.53615234375002,27.230769230769226L146.82704296875002,27.230769230769226L146.936126953125,27.230769230769226L146.97248828124998,27.230769230769226L147.26337890624998,27.230769230769226L147.80879882812502,27.230769230769226L147.954244140625,27.230769230769226L148.026966796875,27.230769230769226L148.57238671875,27.230769230769226L149.045083984375,27.230769230769226L149.88139453125,27.230769230769226L150.426814453125,27.230769230769226L150.46317578125,27.230769230769226L150.68134375,27.230769230769226L150.717705078125,27.230769230769226L150.89951171875,27.230769230769226L151.08131835937502,27.230769230769226L151.226763671875,27.230769230769226L151.299486328125,27.230769230769226L151.88126757812498,27.230769230769226L152.2812421875,27.230769230769226L152.535771484375,27.230769230769226L152.5721328125,27.230769230769226L152.826662109375,27.230769230769226L152.93574609375003,27.230769230769226L153.80841796875,27.230769230769226L153.917501953125,27.230769230769226L154.17203125,27.230769230769226L154.28111523437502,27.230769230769226L154.3174765625,27.230769230769226L154.39019921875,27.230769230769226L154.426560546875,27.230769230769226L155.153787109375,27.230769230769226L155.33559375000002,27.230769230769226L155.662845703125,27.230769230769226L155.735568359375,27.230769230769226L155.808291015625,27.230769230769226L156.06282031249998,27.230769230769226L156.535517578125,27.230769230769226L156.60824023437502,27.230769230769226L156.826408203125,27.230769230769226L157.117298828125,27.230769230769226L157.335466796875,27.230769230769226L157.371828125,27.230769230769226L157.55363476562502,27.230769230769226L157.73544140625,27.230769230769226L157.98997070312498,27.230769230769226L158.426306640625,27.230769230769226L158.571751953125,27.230769230769226L159.04444921874997,27.230769230769226L159.11717187500003,27.230769230769226L159.18989453125,27.230769230769226L159.298978515625,27.230769230769226L159.48078515625,27.230769230769226L160.098927734375,27.230769230769226L160.280734375,27.230769230769226L160.93523828125,27.230769230769226L161.08068359375,27.230769230769226L161.189767578125,27.230769230769226L161.37157421875,27.230769230769226L161.626103515625,27.230769230769226L161.771548828125,27.230769230769226L161.84427148437499,27.230769230769226L162.062439453125,27.230769230769226L162.09880078125002,27.230769230769226L162.31696875,27.230769230769226L162.571498046875,27.230769230769226L162.78966601562502,27.230769230769226L162.89875,27.230769230769226L163.11691796875,27.230769230769226L163.516892578125,27.230769230769226L163.58961523437497,27.230769230769226L163.953228515625,27.230769230769226L164.0623125,27.230769230769226L164.13503515625,27.230769230769226L164.316841796875,27.230769230769226L164.898623046875,27.230769230769226L164.971345703125,27.230769230769226L165.189513671875,27.230769230769226L165.334958984375,27.230769230769226L165.40768164062501,27.230769230769226L165.916740234375,27.230769230769226L166.35307617187502,27.230769230769226L166.5348828125,27.230769230769226L166.97121875,27.230769230769226L167.007580078125,27.230769230769226L167.225748046875,27.230769230769226L167.262109375,27.230769230769226L167.77116796875,27.230769230769226L167.91661328125002,27.230769230769226L167.98933593750002,27.230769230769226L168.06205859375,27.230769230769226L168.171142578125,27.230769230769226L168.2802265625,27.230769230769226L168.898369140625,27.230769230769226L169.29834375,27.230769230769226L169.334705078125,27.230769230769226L169.55287304687502,27.230769230769226L169.80740234375,27.230769230769226L170.68007421875,27.230769230769226L170.89824218750002,27.230769230769226L170.97096484375,27.230769230769226L171.734552734375,27.230769230769226L171.84363671875,27.230769230769226L171.98908203125,27.230769230769226L172.025443359375,27.230769230769226L172.0618046875,27.230769230769226L172.27997265625,27.230769230769226L172.389056640625,27.230769230769226L172.46177929687502,27.230769230769226L172.78903125,27.230769230769226L173.043560546875,27.230769230769226L173.2253671875,27.230769230769226L173.51625781250002,27.230769230769226L173.661703125,27.230769230769226L173.80714843750002,27.230769230769226L174.279845703125,27.230769230769226L174.352568359375,27.230769230769226L174.46165234375,27.230769230769226L174.89798828124998,27.230769230769226L175.04343359375,27.230769230769226L175.225240234375,27.230769230769226L175.297962890625,27.230769230769226L175.66157617187503,27.230769230769226L175.73429882812502,27.230769230769226L175.80702148437499,27.230769230769226L176.27971875,27.230769230769226L176.8615,27.230769230769226L177.043306640625,27.230769230769226L177.29783593750003,27.230769230769226L178.206869140625,27.230769230769226L178.24323046875,27.230769230769226L178.279591796875,27.230769230769226L178.53412109375,27.230769230769226L178.897734375,27.230769230769226L179.188625,27.230769230769226L179.44315429687498,27.230769230769226L179.588599609375,27.230769230769226L179.98857421875002,27.230769230769226L180.20674218750003,27.230769230769226L180.42491015624998,27.230769230769226L181.0794140625,27.230769230769226L181.224859375,27.230769230769226L181.62483398437502,27.230769230769226L181.806640625,27.230769230769226L181.98844726562498,27.230769230769226L182.133892578125,27.230769230769226L182.17025390625,27.230769230769226L182.570228515625,27.230769230769226L182.60658984375002,27.230769230769226L183.006564453125,27.230769230769226L183.079287109375,27.230769230769226L183.1156484375,27.230769230769226L183.370177734375,27.230769230769226L183.47926171875,27.230769230769226L183.515623046875,27.230769230769226L183.551984375,27.230769230769226L183.77015234375,27.230769230769226L184.57010156249999,27.230769230769226L185.188244140625,27.230769230769226L185.37005078125,27.230769230769226L185.406412109375,27.230769230769226L185.479134765625,27.230769230769226L185.770025390625,27.230769230769226L187.87898242187498,27.230769230769226L188.388041015625,27.230769230769226L188.42440234375002,27.230769230769226L188.82437695312498,27.230769230769226L188.86073828125,27.230769230769226L188.9334609375,27.230769230769226L189.00618359375002,27.230769230769226L189.11526757812499,27.230769230769226L189.15162890625,27.230769230769226L189.2243515625,27.230769230769226L190.06066210937502,27.230769230769226L190.24246875,27.230769230769226L190.35155273437502,27.230769230769226L190.46063671875,27.230769230769226L190.64244335937502,27.230769230769226L191.04241796875,27.230769230769226L191.369669921875,27.230769230769226L191.47875390625,27.230769230769226L191.515115234375,27.230769230769226L191.8423671875,27.230769230769226L192.06053515625,27.230769230769226L192.64231640625,27.230769230769226L192.860484375,27.230769230769226L193.0059296875,27.230769230769226L193.333181640625,27.230769230769226L193.405904296875,27.230769230769226L193.73315625,27.230769230769226L193.8786015625,27.230769230769226L194.09676953125,27.230769230769226L194.278576171875,27.230769230769226L194.496744140625,27.230769230769226L194.82399609375,27.230769230769226L195.078525390625,27.230769230769226L195.223970703125,27.230769230769226L195.55122265625,27.230769230769226L196.096642578125,27.230769230769226L196.351171875,27.230769230769226L196.460255859375,27.230769230769226L196.56933984375,27.230769230769226L196.71478515625,27.230769230769226L196.751146484375,27.230769230769226L197.44201171875,27.230769230769226L197.478373046875,27.230769230769226L197.551095703125,27.230769230769226L197.769263671875,27.230769230769226L197.87834765625,27.230769230769226L198.860103515625,27.230769230769226L199.078271484375,27.230769230769226L199.223716796875,27.230769230769226L199.33280078125,27.230769230769226L199.62369140625,27.230769230769226L199.6964140625,27.230769230769226L200.314556640625,27.230769230769226L200.35091796875,27.230769230769226L201.041783203125,27.230769230769226L201.07814453125002,27.230769230769226L201.187228515625,27.230769230769226L201.44175781250001,27.230769230769226L201.51448046874998,27.230769230769226L201.80537109374998,27.230769230769226L201.87809374999998,27.230769230769226L201.914455078125,27.230769230769226L202.38715234375,27.230769230769226L202.45987499999998,27.230769230769226L202.82348828125,27.230769230769226L202.93257226562503,27.230769230769226L203.332546875,27.230769230769226L203.44163085937498,27.230769230769226L203.514353515625,27.230769230769226L203.587076171875,27.230769230769226L204.023412109375,27.230769230769226L204.6415546875,27.230769230769226L205.186974609375,27.230769230769226L205.405142578125,27.230769230769226L205.659671875,27.230769230769226L205.9505625,27.230769230769226L206.0960078125,27.230769230769226L206.35053710937498,27.230769230769226L206.3868984375,27.230769230769226L206.42325976562498,27.230769230769226L206.786873046875,27.230769230769226L207.55046093750002,27.230769230769226L207.732267578125,27.230769230769226L207.91407421875,27.230769230769226L208.1322421875,27.230769230769226L208.49585546875,27.230769230769226L208.677662109375,27.230769230769226L208.89583007812502,27.230769230769226L209.04127539062497,27.230769230769226L209.07763671875,27.230769230769226L209.36852734375,27.230769230769226L209.477611328125,27.230769230769226L209.51397265625,27.230769230769226L209.5866953125,27.230769230769226L209.695779296875,27.230769230769226L209.732140625,27.230769230769226L209.768501953125,27.230769230769226L210.02303125,27.230769230769226L210.132115234375,27.230769230769226L210.16847656250002,27.230769230769226L210.204837890625,27.230769230769226L210.24119921875,27.230769230769226L210.313921875,27.230769230769226L210.423005859375,27.230769230769226L210.45936718750002,27.230769230769226L210.67753515624997,27.230769230769226L210.89570312499998,27.230769230769226L210.96842578124998,27.230769230769226L211.077509765625,27.230769230769226L211.80473632812502,27.230769230769226L211.877458984375,27.230769230769226L212.09562695312502,27.230769230769226L212.35015625,27.230769230769226L212.78649218750002,27.230769230769226L213.477357421875,27.230769230769226L213.550080078125,27.230769230769226L214.131861328125,27.230769230769226L214.2409453125,27.230769230769226L214.31366796875,27.230769230769226L214.350029296875,27.230769230769226L215.04089453125,27.230769230769226L215.91356640625,27.230769230769226L216.022650390625,27.230769230769226L216.49534765625,27.230769230769226L216.78623828124998,27.230769230769226L217.07712890624998,27.230769230769226L217.113490234375,27.230769230769226L217.22257421875,27.230769230769226L217.295296875,27.230769230769226L217.33165820312502,27.230769230769226L217.840716796875,27.230769230769226L218.13160742187497,27.230769230769226L218.931556640625,27.230769230769226L219.149724609375,27.230769230769226L219.25880859375002,27.230769230769226L219.513337890625,27.230769230769226L219.98603515624998,27.230769230769226L220.05875781249998,27.230769230769226L220.095119140625,27.230769230769226L220.34964843749998,27.230769230769226L221.00415234375,27.230769230769226L221.58593359375,27.230769230769226L221.840462890625,27.230769230769226L222.02226953125,27.230769230769226L222.058630859375,27.230769230769226L222.276798828125,27.230769230769226L222.74949609375003,27.230769230769226L222.82221875,27.230769230769226L223.04038671875,27.230769230769226L223.149470703125,27.230769230769226L223.98578125,27.230769230769226L224.16758789062501,27.230769230769226L224.64028515625,27.230769230769226L224.78573046875002,27.230769230769226L225.44023437500002,27.230769230769226L225.73112500000002,27.230769230769226L225.87657031249998,27.230769230769226L226.567435546875,27.230769230769226L226.67651953125,27.230769230769226L226.71288085937502,27.230769230769226L226.785603515625,27.230769230769226L226.858326171875,27.230769230769226L226.8946875,27.230769230769226L227.0401328125,27.230769230769226L227.07649414062502,27.230769230769226L227.47646875,27.230769230769226L227.69463671875,27.230769230769226L227.84008203125,27.230769230769226L228.676392578125,27.230769230769226L229.14908984374998,27.230769230769226L229.43998046874998,27.230769230769226L229.73087109374998,27.230769230769226L230.130845703125,27.230769230769226L230.16720703125,27.230769230769226L230.71262695312498,27.230769230769226L230.8217109375,27.230769230769226L231.221685546875,27.230769230769226L231.25804687500002,27.230769230769226L231.367130859375,27.230769230769226L231.98527343749998,27.230769230769226L232.13071875,27.230769230769226L232.2761640625,27.230769230769226L232.60341601562502,27.230769230769226L232.78522265625,27.230769230769226L232.8579453125,27.230769230769226L232.93066796875,27.230769230769226L233.25791992187501,27.230769230769226L233.4397265625,27.230769230769226L233.62153320312498,27.230769230769226L234.130591796875,27.230769230769226L234.16695312500002,27.230769230769226L234.23967578125,27.230769230769226L234.421482421875,27.230769230769226L234.74873437500003,27.230769230769226L234.96690234374998,27.230769230769226L235.439599609375,27.230769230769226L235.7668515625,27.230769230769226L236.021380859375,27.230769230769226L236.16682617187502,27.230769230769226L236.38499414062503,27.230769230769226L236.60316210937498,27.230769230769226L236.78496875,27.230769230769226L236.89405273437498,27.230769230769226L236.966775390625,27.230769230769226L237.36675,27.230769230769226L237.5121953125,27.230769230769226L237.839447265625,27.230769230769226L238.13033789062501,27.230769230769226L238.31214453125,27.230769230769226L238.493951171875,27.230769230769226L238.74848046875,27.230769230769226L238.930287109375,27.230769230769226L239.00300976562502,27.230769230769226L239.07573242187502,27.230769230769226L239.11209374999999,27.230769230769226L239.43934570312499,27.230769230769226L239.47570703125,27.230769230769226L239.51206835937498,27.230769230769226L239.730236328125,27.230769230769226L240.166572265625,27.230769230769226L240.34837890625002,27.230769230769226L240.63926953125002,27.230769230769226L240.71199218750002,27.230769230769226L241.07560546874998,27.230769230769226L241.14832812499998,27.230769230769226L241.69374804687502,27.230769230769226L242.09372265625,27.230769230769226L242.1664453125,27.230769230769226L242.311890625,27.230769230769226L242.38461328125,27.230769230769226L242.7482265625,27.230769230769226L242.857310546875,27.230769230769226L244.093595703125,27.230769230769226L244.34812499999998,27.230769230769226L244.457208984375,27.230769230769226L244.60265429687502,27.230769230769226L245.111712890625,27.230769230769226L245.5116875,27.230769230769226L245.766216796875,27.230769230769226L246.02074609375,27.230769230769226L246.384359375,27.230769230769226L246.493443359375,27.230769230769226L246.67525,27.230769230769226L246.857056640625,27.230769230769226L247.075224609375,27.230769230769226L247.147947265625,27.230769230769226L247.51156054687502,27.230769230769226L247.547921875,27.230769230769226L248.16606445312502,27.230769230769226L248.2751484375,27.230769230769226L248.52967773437499,27.230769230769226L248.89329101562498,27.230769230769226L248.966013671875,27.230769230769226L249.402349609375,27.230769230769226L249.51143359375,27.230769230769226L249.58415625,27.230769230769226L249.838685546875,27.230769230769226L250.202298828125,27.230769230769226L250.493189453125,27.230769230769226L250.565912109375,27.230769230769226L250.638634765625,27.230769230769226L250.74771875,27.230769230769226L250.82044140624998,27.230769230769226L251.147693359375,27.230769230769226L251.51130664062498,27.230769230769226L251.54766796875,27.230769230769226L251.83855859375,27.230769230769226L251.91128125,27.230769230769226L252.05672656250002,27.230769230769226L252.093087890625,27.230769230769226L252.783953125,27.230769230769226L252.965759765625,27.230769230769226L253.038482421875,27.230769230769226L253.07484374999999,27.230769230769226L253.183927734375,27.230769230769226L253.5111796875,27.230769230769226L254.16568359375,27.230769230769226L254.529296875,27.230769230769226L254.89291015625,27.230769230769226L255.07471679687498,27.230769230769226L255.220162109375,27.230769230769226L255.2565234375,27.230769230769226L255.40196875,27.230769230769226L255.62013671875002,27.230769230769226L255.656498046875,27.230769230769226L255.692859375,27.230769230769226L255.801943359375,27.230769230769226L255.91102734375002,27.230769230769226L256.4200859375,27.230769230769226L256.601892578125,27.230769230769226L256.7109765625,27.230769230769226L257.329119140625,27.230769230769226L257.36548046875004,27.230769230769226L257.51092578124997,27.230769230769226L257.692732421875,27.230769230769226L257.94726171875,27.230769230769226L258.274513671875,27.230769230769226L258.347236328125,27.230769230769226L258.71084960937503,27.230769230769226L258.929017578125,27.230769230769226L259.001740234375,27.230769230769226L259.219908203125,27.230769230769226L259.292630859375,27.230769230769226L259.365353515625,27.230769230769226L259.6198828125,27.230769230769226L259.801689453125,27.230769230769226L259.874412109375,27.230769230769226L259.947134765625,27.230769230769226L259.98349609375003,27.230769230769226L260.238025390625,27.230769230769226L260.528916015625,27.230769230769226L260.78344531249996,27.230769230769226L260.928890625,27.230769230769226L261.110697265625,27.230769230769226L261.21978125,27.230769230769226L261.8015625,27.230769230769226L262.16517578125,27.230769230769226L262.201537109375,27.230769230769226L262.274259765625,27.230769230769226L262.492427734375,27.230769230769226L262.5287890625,27.230769230769226L262.71059570312497,27.230769230769226L262.965125,27.230769230769226L263.146931640625,27.230769230769226L263.25601562500003,27.230769230769226L263.4014609375,27.230769230769226L263.61962890625,27.230769230769226L264.092326171875,27.230769230769226L264.34685546875,27.230769230769226L265.037720703125,27.230769230769226L265.764947265625,27.230769230769226L265.87403125000003,27.230769230769226L266.0194765625,27.230769230769226L266.055837890625,27.230769230769226L266.3103671875,27.230769230769226L266.928509765625,27.230769230769226L267.328484375,27.230769230769226L267.72845898437504,27.230769230769226L267.98298828125,27.230769230769226L268.20115625,27.230769230769226L269.07382812500003,27.230769230769226L269.910138671875,27.230769230769226L270.237390625,27.230769230769226L270.782810546875,27.230769230769226L270.819171875,27.230769230769226L271.07370117187503,27.230769230769226L271.21914648437496,27.230769230769226L271.582759765625,27.230769230769226L271.69184375000003,27.230769230769226L271.728205078125,27.230769230769226L272.091818359375,27.230769230769226L272.237263671875,27.230769230769226L272.528154296875,27.230769230769226L272.564515625,27.230769230769226L272.673599609375,27.230769230769226" style="fill: none;" fill="none"></path></g></g></g></g></g></g><g transform="translate(39, 177)" clip-path="url(#clip_1)"><clipPath id="clip_1"><rect width="290" height="23"></rect></clipPath><g><g><line x1="0" y1="0" x2="0" y2="5" style="visibility: inherit;" fill="rgb(0, 0, 0)" stroke="rgb(204, 204, 204)" stroke-width="1px"></line><line x1="36.361328125" y1="0" x2="36.361328125" y2="5" style="visibility: inherit;" fill="rgb(0, 0, 0)" stroke="rgb(204, 204, 204)" stroke-width="1px"></line><line x1="72.72265625" y1="0" x2="72.72265625" y2="5" style="visibility: inherit;" fill="rgb(0, 0, 0)" stroke="rgb(204, 204, 204)" stroke-width="1px"></line><line x1="109.083984375" y1="0" x2="109.083984375" y2="5" style="visibility: inherit;" fill="rgb(0, 0, 0)" stroke="rgb(204, 204, 204)" stroke-width="1px"></line><line x1="145.4453125" y1="0" x2="145.4453125" y2="5" style="visibility: inherit;" fill="rgb(0, 0, 0)" stroke="rgb(204, 204, 204)" stroke-width="1px"></line><line x1="181.806640625" y1="0" x2="181.806640625" y2="5" style="visibility: inherit;" fill="rgb(0, 0, 0)" stroke="rgb(204, 204, 204)" stroke-width="1px"></line><line x1="218.16796875" y1="0" x2="218.16796875" y2="5" style="visibility: inherit;" fill="rgb(0, 0, 0)" stroke="rgb(204, 204, 204)" stroke-width="1px"></line><line x1="254.529296875" y1="0" x2="254.529296875" y2="5" style="visibility: inherit;" fill="rgb(0, 0, 0)" stroke="rgb(204, 204, 204)" stroke-width="1px"></line><line x1="290.890625" y1="0" x2="290.890625" y2="5" style="visibility: inherit;" fill="rgb(0, 0, 0)" stroke="rgb(204, 204, 204)" stroke-width="1px"></line></g><g transform="translate(0, 8)"><text x="0" y="0" dx="0em" dy="0.95em" style="text-anchor: middle; visibility: hidden; font-family: &quot;Helvetica Neue&quot;, sans-serif; font-size: 12px; font-weight: 200;" fill="rgb(50, 49, 63)" stroke="none" stroke-width="1px">-1k</text><text x="36.361328125" y="0" dx="0em" dy="0.95em" style="text-anchor: middle; visibility: inherit; font-family: &quot;Helvetica Neue&quot;, sans-serif; font-size: 12px; font-weight: 200;" fill="rgb(50, 49, 63)" stroke="none" stroke-width="1px">0</text><text x="72.72265625" y="0" dx="0em" dy="0.95em" style="text-anchor: middle; visibility: inherit; font-family: &quot;Helvetica Neue&quot;, sans-serif; font-size: 12px; font-weight: 200;" fill="rgb(50, 49, 63)" stroke="none" stroke-width="1px">1k</text><text x="109.083984375" y="0" dx="0em" dy="0.95em" style="text-anchor: middle; visibility: inherit; font-family: &quot;Helvetica Neue&quot;, sans-serif; font-size: 12px; font-weight: 200;" fill="rgb(50, 49, 63)" stroke="none" stroke-width="1px">2k</text><text x="145.4453125" y="0" dx="0em" dy="0.95em" style="text-anchor: middle; visibility: inherit; font-family: &quot;Helvetica Neue&quot;, sans-serif; font-size: 12px; font-weight: 200;" fill="rgb(50, 49, 63)" stroke="none" stroke-width="1px">3k</text><text x="181.806640625" y="0" dx="0em" dy="0.95em" style="text-anchor: middle; visibility: inherit; font-family: &quot;Helvetica Neue&quot;, sans-serif; font-size: 12px; font-weight: 200;" fill="rgb(50, 49, 63)" stroke="none" stroke-width="1px">4k</text><text x="218.16796875" y="0" dx="0em" dy="0.95em" style="text-anchor: middle; visibility: inherit; font-family: &quot;Helvetica Neue&quot;, sans-serif; font-size: 12px; font-weight: 200;" fill="rgb(50, 49, 63)" stroke="none" stroke-width="1px">5k</text><text x="254.529296875" y="0" dx="0em" dy="0.95em" style="text-anchor: middle; visibility: inherit; font-family: &quot;Helvetica Neue&quot;, sans-serif; font-size: 12px; font-weight: 200;" fill="rgb(50, 49, 63)" stroke="none" stroke-width="1px">6k</text><text x="290.890625" y="0" dx="0em" dy="0.95em" style="text-anchor: middle; visibility: hidden; font-family: &quot;Helvetica Neue&quot;, sans-serif; font-size: 12px; font-weight: 200;" fill="rgb(50, 49, 63)" stroke="none" stroke-width="1px">7k</text></g><line x1="0" y1="0" x2="290.890625" y2="0" fill="rgb(0, 0, 0)" stroke="rgb(204, 204, 204)" stroke-width="1px"></line></g></g></g></g></svg>